<?xml version="1.0" encoding="utf-8"?>
<!-- Generator: Adobe Illustrator 17.0.0, SVG Export Plug-In . SVG Version: 6.00 Build 0)  -->
<!DOCTYPE svg PUBLIC "-//W3C//DTD SVG 1.1//EN" "http://www.w3.org/Graphics/SVG/1.1/DTD/svg11.dtd">
<svg version="1.1" id="图层_1" xmlns="http://www.w3.org/2000/svg" xmlns:xlink="http://www.w3.org/1999/xlink" x="0px" y="0px"
	 width="200px" height="40px" viewBox="0 0 200 40" enable-background="new 0 0 200 40" xml:space="preserve">
<g>
	<polygon fill="#5DB6E7" points="12.333,22.341 13.743,26.431 15.827,20.756 	"/>
	<polygon fill="#A9CE52" points="12.67,15.705 14.323,19.247 9.69,19.663 	"/>
	<polygon fill="#752388" points="16.091,15.891 0.151,0 12.67,15.705 	"/>
	<polygon fill="#7FC7EF" points="16.091,15.891 15.385,13.251 0.151,0 	"/>
	<polygon fill="#8C509B" points="14.323,19.247 12.67,15.705 16.091,15.891 	"/>
	<polygon fill="#00853C" points="12.333,22.341 14.323,19.247 9.69,19.663 	"/>
	<polygon fill="#1DAB41" points="9.69,19.663 5.996,24.569 12.333,22.341 	"/>
	<polygon fill="#90529C" points="5.662,29.489 7.691,32.912 5.007,32.27 	"/>
	<polygon fill="#C38FBD" points="5.007,32.27 3.212,28.641 5.662,29.489 	"/>
	<polygon fill="#EF821E" points="5.996,24.569 5.662,29.489 3.212,28.641 	"/>
	<polygon fill="#E95320" points="5.662,29.489 8.609,26.485 5.996,24.569 	"/>
	<path fill="none" stroke="#231815" stroke-width="0.1" stroke-miterlimit="10" d="M5.662,29.489"/>
	<polygon fill="#008CCE" points="5.662,29.489 10.039,28.765 7.691,32.912 	"/>
	<polygon fill="#5DB6E7" points="8.609,26.485 10.039,28.765 5.662,29.489 	"/>
	<polygon fill="#008CCE" points="8.609,26.485 12.333,22.341 10.039,28.765 	"/>
	<polygon fill="#F5AB2D" points="8.609,26.485 5.996,24.569 12.333,22.341 	"/>
	<polygon fill="#1DADE5" points="16.091,15.891 18.554,12.317 15.385,13.251 	"/>
	<polygon fill="#C38FBD" points="16.091,15.891 15.827,20.756 14.323,19.247 	"/>
	<polygon fill="#7FC7EF" points="16.091,15.891 18.401,17.187 15.827,20.756 	"/>
	<polygon fill="#90529C" points="15.827,20.756 16.667,25.716 13.743,26.431 	"/>
	<polygon fill="#1DAB41" points="16.667,25.716 20.342,27.685 16.889,29.489 	"/>
	<polygon fill="#F5AB2D" points="13.743,26.431 16.889,29.489 16.667,25.716 	"/>
	<polygon fill="#EF821E" points="13.743,26.431 12.002,30.178 16.889,29.489 	"/>
	<polygon fill="#7FC7EF" points="10.039,28.765 13.743,26.431 12.333,22.341 	"/>
	<polygon fill="#EF821E" points="10.039,28.765 10.104,32.049 7.691,32.912 	"/>
	<polygon fill="#F5AB2D" points="10.039,28.765 12.002,30.178 10.104,32.049 	"/>
	<polygon fill="#E95320" points="10.039,28.765 13.743,26.431 12.002,30.178 	"/>
	<polygon fill="#008CCE" points="18.554,12.317 18.401,17.187 16.091,15.891 	"/>
	<polygon fill="#E95320" points="24.155,10.854 19.667,14.433 19.821,9.563 	"/>
	<polygon fill="#C38FBD" points="15.827,20.756 22.777,22.633 16.667,25.716 	"/>
	<polygon fill="#00853C" points="22.777,22.633 20.342,27.685 16.667,25.716 	"/>
	<polygon fill="#1DADE5" points="18.401,17.187 22.777,22.633 15.827,20.756 	"/>
	<polygon fill="#F5AB2D" points="22.889,13.609 24.782,18.631 18.401,17.187 	"/>
	<polygon fill="#008CCE" points="24.782,18.631 22.777,22.633 18.401,17.187 	"/>
	<polygon fill="#A9CE52" points="20.342,27.685 25.824,28.568 22.777,22.633 	"/>
	<polygon fill="#EF821E" points="25.729,17.263 27.015,13.548 23.836,12.241 	"/>
	<polygon fill="#E95520" points="27.443,18.059 33.11,20.973 28.43,14.681 	"/>
	<polygon fill="#7FC7EF" points="22.777,22.633 29.306,26.491 24.782,18.631 	"/>
	<polygon fill="#00853C" points="25.98,25.692 29.027,31.627 32.51,29.549 	"/>
	<polygon fill="#008CCE" points="27.592,19.968 42.151,30.329 32.116,27.828 	"/>
	<polygon fill="#1DAB41" points="21.12,29.367 28.867,40.066 26.602,30.25 	"/>
	<polygon fill="#90529C" points="32.301,17.602 36.042,23.693 38.06,21.326 	"/>
	<path fill="none" stroke="#231815" stroke-width="0.1" stroke-miterlimit="10" d="M27.369,27.218"/>
	<path fill="none" stroke="#231815" stroke-width="0.1" stroke-miterlimit="10" d="M0.151,0"/>
	<polygon fill="#F5AB2D" points="28.045,10.374 26.295,11.601 28.444,11.601 	"/>
	<polygon fill="#1DAB41" points="31.899,12.759 30.276,13.609 31.538,15.705 	"/>
	<polygon fill="#008CCE" points="20.12,30.927 17.982,30.854 20.622,32.399 	"/>
</g>
<g>
	<path d="M57.111,24.913v4.161h5.251v1.3h-5.251v5.478h-1.44V23.561h8.024v1.352H57.111z"/>
	<path d="M65.931,35.852V23.561h1.44v12.291H65.931z"/>
	<path d="M78.663,34.5v1.352h-8.024V23.561h1.44V34.5H78.663z"/>
	<path d="M92.013,23.561v12.291h-1.422v-5.531c0-1.896,0.088-4.337,0.07-4.337h-0.018c-0.017,0-0.632,1.124-1.071,1.861
		l-2.862,4.987h-0.755l-2.862-4.987c-0.439-0.737-1.053-1.861-1.071-1.861h-0.017c-0.018,0,0.07,2.44,0.07,4.337v5.531h-1.423
		V23.561h1.352l3.055,5.198c1.053,1.791,1.246,2.282,1.264,2.282h0.018c0.017,0,0.21-0.492,1.264-2.282l3.055-5.198H92.013z"/>
	<path d="M101.118,24.913v4.161h5.251v1.3h-5.251v5.478h-1.44V23.561h8.024v1.352H101.118z"/>
	<path d="M118.243,34.5v1.352h-8.305V23.561h8.2v1.352h-6.76v3.792h5.426v1.282h-5.426V34.5H118.243z"/>
	<path d="M127.117,26.967c-0.264-1.492-1.545-2.388-3.073-2.388c-1.615,0-2.756,0.773-2.756,2.002c0,1.352,1.703,1.774,3.336,2.265
		c1.721,0.509,4.056,1.282,4.056,3.669c0,2.072-1.791,3.582-4.495,3.582c-2.634,0-4.302-1.545-4.688-3.617l1.387-0.369
		c0.176,1.423,1.352,2.686,3.354,2.686c1.826,0,2.932-0.966,2.932-2.247c0-1.791-2.125-2.16-3.862-2.704
		c-1.405-0.439-3.477-1.072-3.477-3.196c0-1.914,1.809-3.336,4.267-3.336c2.23,0,3.986,1.317,4.39,3.284L127.117,26.967z"/>
	<path d="M139.079,23.561v1.352h-4.126v10.939h-1.423V24.913h-4.109v-1.352H139.079z"/>
	<path d="M141.104,35.852V23.561h1.44v12.291H141.104z"/>
	<path d="M156.171,23.561l-5.25,12.291h-1.458l-5.25-12.291h1.563l3.705,8.797c0.351,0.878,0.685,1.879,0.702,1.879h0.018
		c0.017,0,0.369-1.001,0.702-1.879l3.723-8.797H156.171z"/>
	<path d="M164.043,32.638h-6.163l-1.369,3.213h-1.545l5.338-12.291h1.317l5.338,12.291h-1.545L164.043,32.638z M163.498,31.357
		l-1.949-4.565c-0.263-0.633-0.562-1.493-0.579-1.493h-0.018c-0.018,0-0.316,0.86-0.58,1.493l-1.949,4.565H163.498z"/>
	<path d="M176.745,34.5v1.352h-8.024V23.561h1.44V34.5H176.745z"/>
</g>
<path d="M56.971,8.201l-5.233,5.636c-0.544,0.58-1.141,1.159-1.141,1.177l0.017,0.017c0.018,0,0.861-0.052,1.914-0.052h4.443v2.756
	H46.577v-2.756l5.478-5.759c0.439-0.474,1.142-1.036,1.142-1.054l-0.018-0.017c-0.017,0-1.141,0.053-1.914,0.053h-4.513V5.444
	h10.219V8.201z"/>
<path d="M68.812,5.444v6.83c0,3.687-2.282,5.707-5.531,5.707c-2.353,0-4.337-1.335-5.074-3.143l2.897-0.773
	c0.422,0.738,1.177,1.159,2.177,1.159c1.616,0,2.581-1.089,2.581-2.845V5.444H68.812z"/>
<path d="M81.952,5.444v6.83c0,3.687-2.177,5.707-5.426,5.707c-3.265,0-5.425-2.019-5.425-5.707v-6.83h2.949v6.76
	c0,2.107,0.861,3.02,2.476,3.02c1.616,0,2.476-0.914,2.476-3.02v-6.76H81.952z"/>
<path fill="#008CCE" d="M100.012,5.444l-4.706,6.848v5.443h-2.932v-5.443l-4.705-6.848h3.3l2.23,3.283
	c0.351,0.527,0.614,0.896,0.632,0.896h0.018c0.017,0,0.281-0.369,0.632-0.896l2.23-3.283H100.012z"/>
<path fill="#008CCE" d="M105.953,5.198c3.529,0,6.391,2.686,6.391,6.391s-2.862,6.391-6.391,6.391c-3.529,0-6.374-2.686-6.374-6.391
	S102.424,5.198,105.953,5.198z M105.953,15.067c2.002,0,3.318-1.423,3.318-3.477c0-2.072-1.317-3.476-3.318-3.476
	c-1.984,0-3.301,1.405-3.301,3.476C102.652,13.644,103.969,15.067,105.953,15.067z"/>
<path fill="#008CCE" d="M124.958,5.444v6.83c0,3.687-2.177,5.707-5.426,5.707c-3.265,0-5.425-2.019-5.425-5.707v-6.83h2.949v6.76
	c0,2.107,0.861,3.02,2.475,3.02c1.616,0,2.476-0.914,2.476-3.02v-6.76H124.958z"/>
<path fill="#008CCE" d="M136.66,5.444v2.757h-3.74v9.534h-2.949V8.201h-3.687V5.444H136.66z"/>
<path fill="#008CCE" d="M148.711,5.444v12.291h-2.949v-4.776h-4.601v4.776h-2.949V5.444h2.949v4.759h4.601V5.444H148.711z"/>
</svg>
