<?xml version="1.0" encoding="utf-8"?>
<!-- Generator: Adobe Illustrator 17.0.0, SVG Export Plug-In . SVG Version: 6.00 Build 0)  -->
<!DOCTYPE svg PUBLIC "-//W3C//DTD SVG 1.1//EN" "http://www.w3.org/Graphics/SVG/1.1/DTD/svg11.dtd">
<svg version="1.1" id="图层_1" xmlns="http://www.w3.org/2000/svg" xmlns:xlink="http://www.w3.org/1999/xlink" x="0px" y="0px"
	 width="200px" height="40px" viewBox="0 0 200 40" enable-background="new 0 0 200 40" xml:space="preserve">
<g>
	<path fill="#42A0DE" d="M35.891,17.801l-8.033,5.994c2.484,2.285,5.514,4.025,9.088,5.221c-0.961,1.523-1.934,3.211-2.918,5.063
		c-5.32-2.391-9.422-6.035-12.305-10.934v8.191c0,1.875-0.428,3.319-1.283,4.333s-2.206,1.582-4.052,1.705s-3.63,0.185-5.353,0.185
		c-0.352-1.875-0.773-3.668-1.266-5.379c1.594,0.094,2.965,0.141,4.113,0.141c1.945,0,2.918-0.949,2.918-2.848v-3.234
		c-4.84,2.52-9,4.781-12.48,6.785L2,28.383c5.391-2.262,10.324-4.6,14.801-7.014v-8.068H2.598V8.941h14.203V3.105h4.922v5.836h7.594
		c-1.383-1.078-2.848-2.121-4.395-3.129L28.016,3c1.711,1.055,3.469,2.262,5.273,3.621l-2.549,2.32h5.678v4.359H21.723v1.248
		c0.855,2.25,1.939,4.266,3.252,6.047c2.684-2.039,5.174-4.178,7.471-6.416L35.891,17.801z M7.344,14.496
		c2.391,1.734,4.676,3.539,6.855,5.414l-3.234,3.27c-2.039-1.852-4.242-3.715-6.609-5.59L7.344,14.496z"/>
	<path fill="#42A0DE" d="M42.078,37.945c-1.219-0.938-2.555-1.898-4.008-2.883c2.625-2.508,4.635-5.988,6.029-10.441h-5.959v-4.043
		h34.734v4.043h-14.66v2.145h11.953v3.832H58.215v2.232c1.535,0.035,3.422,0.053,5.66,0.053c2.555,0,5.578-0.023,9.07-0.07
		c-0.586,1.523-1.043,2.906-1.371,4.148c-1.711,0.035-4.711,0.023-9-0.035l-5.133-0.07c-5.391,0-9.305-1.266-11.742-3.797
		C44.621,34.98,43.414,36.609,42.078,37.945z M42.184,4.195h26.613v14.695H42.184V4.195z M53.469,32.443v-7.822h-9.281l4.43,1.652
		c-0.34,1.043-0.703,2.033-1.09,2.971C49.051,30.85,51.031,31.916,53.469,32.443z M63.91,8.098H47.07v1.898h16.84V8.098z
		 M63.91,14.988V13.09H47.07v1.898H63.91z"/>
	<path fill="#42A0DE" d="M104.762,7.641v19.107c1.137,0.48,2.52,0.943,4.148,1.389c-0.633,4.125-1.518,6.609-2.654,7.453
		s-2.643,1.266-4.518,1.266h-8.438c-3.82,0-5.73-1.734-5.73-5.203v-3.516H80.68v2.742h-5.063V7.641H87.57V3.316h5.098v4.324H104.762
		z M80.68,12.07v3.586h6.891V12.07H80.68z M80.68,23.707h6.891v-3.621H80.68V23.707z M99.699,12.07h-7.031v3.586h7.031V12.07z
		 M99.699,23.707v-3.621h-7.031v3.621H99.699z M94.813,32.496h5.273c0.867,0,1.553-0.149,2.057-0.448s0.829-0.709,0.976-1.23
		s0.325-1.415,0.536-2.681H92.668v2.496C92.668,31.875,93.383,32.496,94.813,32.496z"/>
	<path fill="#42A0DE" d="M109.754,34.535c1.875-1.57,3.586-3.293,5.133-5.168l2.918,2.285c-0.68,0.785-1.354,1.523-2.021,2.215
		l1.916,0.141c0.984,0,1.477-0.656,1.477-1.969v-2.742h-6.82v-7.594h16.875v7.594h-6.047v4.184c0,1.102-0.202,1.96-0.606,2.575
		s-0.949,0.999-1.635,1.151s-2.224,0.211-4.614,0.176c-0.223-1.184-0.463-2.291-0.721-3.322c-1.137,1.195-2.244,2.279-3.322,3.252
		L109.754,34.535z M110.246,17.027h8.508l-0.404-1.441h-6.627V4.688h18.105v10.898h-6.943l0.229,1.441h8.684v3.375h-21.551V17.027z
		 M125.926,7.43H115.66v1.477h10.266V7.43z M125.926,12.844v-1.477H115.66v1.477H125.926z M125.293,26.379v-1.758h-9v1.758H125.293z
		 M124.273,31.652l2.531-2.32c1.313,1.16,2.713,2.443,4.201,3.85c3.809-2.719,7.389-5.924,10.74-9.615l3.445,3.48
		c-3.656,4.055-7.758,7.758-12.305,11.109c-0.586-0.914-1.512-2.156-2.777-3.727l-1.793,1.617
		C126.91,34.383,125.563,32.918,124.273,31.652z M130.566,10.523c3.75-2.063,7.148-4.441,10.195-7.137l3.164,3.305
		c-3.656,3.141-7.23,5.766-10.723,7.875C132.336,13.09,131.457,11.742,130.566,10.523z M130.566,21.738
		c4.008-2.461,7.805-5.484,11.391-9.07l3.27,3.34c-3.492,3.492-7.441,6.773-11.848,9.844
		C132.512,24.398,131.574,23.027,130.566,21.738z"/>
	<path fill="#42A0DE" d="M156.934,30.949c-2.461,1.852-4.465,3.504-6.012,4.957l-2.496-2.988c0.609-0.563,0.914-1.488,0.914-2.777
		V19.523h-3.234v-4.57h7.91v13.535c0.938-0.703,1.793-1.371,2.566-2.004C156.699,28.266,156.816,29.754,156.934,30.949z
		 M151.309,3.281c1.617,2.25,3.059,4.406,4.324,6.469l-4.324,2.637c-1.008-2.016-2.367-4.254-4.078-6.715L151.309,3.281z
		 M157.355,4.441h21.727v15.82h-8.648v2.391h10.125v3.656h-7.348c2.016,2.25,4.699,3.938,8.051,5.063
		c-0.773,1.242-1.629,2.73-2.566,4.465c-3.398-1.781-6.152-4.184-8.262-7.207v9.141h-4.5v-9.387c-1.969,3-4.547,5.684-7.734,8.051
		c-0.844-1.125-1.863-2.32-3.059-3.586c4.055-2.531,6.867-4.711,8.438-6.539h-7.699v-3.656h10.055v-2.391h-8.578V4.441z
		 M161.785,10.629h4.148V8.027h-4.148V10.629z M161.785,16.676h4.148v-2.602h-4.148V16.676z M174.652,8.027h-4.219v2.602h4.219
		V8.027z M174.652,16.676v-2.602h-4.219v2.602H174.652z"/>
</g>
</svg>
