<?xml version="1.0" encoding="utf-8"?>
<!-- Generator: Adobe Illustrator 17.0.0, SVG Export Plug-In . SVG Version: 6.00 Build 0)  -->
<!DOCTYPE svg PUBLIC "-//W3C//DTD SVG 1.1//EN" "http://www.w3.org/Graphics/SVG/1.1/DTD/svg11.dtd">
<svg version="1.1" id="图层_1" xmlns="http://www.w3.org/2000/svg" xmlns:xlink="http://www.w3.org/1999/xlink" x="0px" y="0px"
	 width="200px" height="40px" viewBox="0 0 200 40" enable-background="new 0 0 200 40" xml:space="preserve">
<g>
	<path fill="#42A0DE" d="M3.406,5.727h13.729c-0.305-0.867-0.65-1.793-1.037-2.777l4.957-0.844c0.469,1.148,0.938,2.355,1.406,3.621
		h12.902v3.902h-8.455l2.725,1.301l-1.617,2.004h8.684v3.902H2v-3.902h8.719c-0.457-0.633-0.973-1.313-1.547-2.039l2.76-1.266H3.406
		V5.727z M6.078,36.805v-17.86h26.473v17.86H27.77v-1.723h-16.91v1.723H6.078z M27.77,22.742h-16.91v2.497h16.91V22.742z
		 M10.859,31.356h16.91v-2.531h-16.91V31.356z M16.502,12.934h5.836c0.867-1.102,1.658-2.203,2.373-3.305H13.953
		C14.914,10.777,15.764,11.879,16.502,12.934z"/>
	<path fill="#42A0DE" d="M40.496,11.563c2.063,1.617,4.09,3.258,6.082,4.922l-3.27,3.621c-1.453-1.43-3.352-3.164-5.695-5.203
		L40.496,11.563z M42.324,21.723c1.594,0.75,3.082,1.371,4.465,1.864l-4.043,13.465c-1.594-0.609-3.105-1.137-4.535-1.582
		C39.383,32.329,40.754,27.747,42.324,21.723z M41.34,2.281c1.875,1.43,3.809,2.941,5.801,4.535l-3.164,3.41
		c-1.453-1.43-3.293-3.047-5.52-4.852L41.34,2.281z M55.543,3.336L60.113,2c0.598,1.066,1.23,2.262,1.898,3.586h8.227v17.156h-0.598
		l2.426,3.059l-6.1,3.217c1.969,1.371,4.236,2.326,6.803,2.865c-0.844,1.289-1.77,2.766-2.777,4.43
		c-4.23-1.242-7.652-3.469-10.266-6.68c-0.117,2.086-0.176,3.68-0.176,4.781c-5.836,1.125-9.305,2.027-10.406,2.707l-2.18-3.727
		c0.68-0.961,1.02-2.168,1.02-3.621V5.586h8.719C56.363,4.906,55.977,4.156,55.543,3.336z M65.703,9.734H52.625v2.461h13.078V9.734z
		 M65.703,18.594v-2.461H52.625v2.461H65.703z M55.684,22.742h-3.059v8.368c2.285-0.445,4.641-0.943,7.066-1.494
		C58.109,27.694,56.773,25.403,55.684,22.742z M62.943,26.311c2.051-1.195,3.814-2.385,5.291-3.569h-7.822
		C61.162,24.067,62.006,25.256,62.943,26.311z"/>
	<path fill="#42A0DE" d="M105.289,18.594v4.254c-6,7.29-15.023,12.012-27.07,14.168c-0.563-1.008-1.406-2.473-2.531-4.395
		c4.055-0.633,7.799-1.594,11.232-2.883c-1.207-0.797-2.678-1.734-4.412-2.813l3.48-3.234c2.449,1.477,4.465,2.73,6.047,3.762
		c2.555-1.348,4.898-2.918,7.031-4.711H84.213c-2.086,2.192-4.424,4.09-7.014,5.696c-1.383-1.617-2.484-2.848-3.305-3.691
		c4.266-2.508,7.559-5.403,9.879-8.684h-7.875V3.371h30.938v12.691H89.223c-0.516,0.879-1.055,1.723-1.617,2.531H105.289z
		 M80.645,12.055h4.008V7.379h-4.008V12.055z M89.363,12.055h3.973V7.379h-3.973V12.055z M102.055,12.055V7.379h-4.008v4.676
		H102.055z"/>
	<path fill="#42A0DE" d="M141.605,24.711v2.813c-2.168,1.383-4.688,2.654-7.559,3.814c3.199,0.504,6.738,0.85,10.617,1.037
		c-1.055,1.5-1.91,2.895-2.566,4.184c-5.566-0.633-10.465-1.617-14.695-2.953c-4.277,1.254-9.117,2.32-14.52,3.199
		c-0.773-1.313-1.559-2.566-2.355-3.762c4.043-0.469,7.705-1.043,10.986-1.723c-2.18-1.043-4.107-2.227-5.783-3.551h-2.531v-3.059
		H141.605z M143.434,15.535v7.805h-32.238v-7.805H143.434z M114.641,14.199V3.371h25.277v10.828H114.641z M115.801,20.492h4.922
		v-2.109h-4.922V20.492z M135.242,6.113h-15.926V7.66h15.926V6.113z M135.242,11.457V9.91h-15.926v1.547H135.242z M127.279,29.879
		c2.18-0.633,4.143-1.336,5.889-2.109h-11.707C123.195,28.579,125.135,29.282,127.279,29.879z M124.871,20.492h4.887v-2.109h-4.887
		V20.492z M138.828,20.492v-2.109h-4.922v2.109H138.828z"/>
	<path fill="#42A0DE" d="M148.813,6.289h12.164V2.211h4.922v4.078h12.234v17.579h-4.852v-2.11h-7.611
		c-0.352,2.86-1.113,5.256-2.285,7.19c4.605,1.641,10.436,2.42,17.49,2.338l-2.707,5.168c-7.453-0.281-13.588-1.494-18.404-3.639
		c-2.625,1.945-6.158,3.334-10.6,4.166c-0.984-1.523-2.098-3.117-3.34-4.781c3.691-0.492,6.656-1.26,8.895-2.303
		c-2.25-1.699-4.031-3.732-5.344-6.1l2.813-2.04h-3.375V6.289z M160.695,21.758h-7.225c1.348,1.993,3.123,3.668,5.326,5.028
		C159.723,25.532,160.355,23.856,160.695,21.758z M153.664,17.258h7.313v-6.469h-7.313V17.258z M173.281,17.258v-6.469h-7.383v6.469
		H173.281z"/>
</g>
</svg>
