<?xml version="1.0" encoding="utf-8"?>
<!-- Generator: Adobe Illustrator 17.0.0, SVG Export Plug-In . SVG Version: 6.00 Build 0)  -->
<!DOCTYPE svg PUBLIC "-//W3C//DTD SVG 1.1//EN" "http://www.w3.org/Graphics/SVG/1.1/DTD/svg11.dtd">
<svg version="1.1" id="图层_1" xmlns="http://www.w3.org/2000/svg" xmlns:xlink="http://www.w3.org/1999/xlink" x="0px" y="0px"
	 width="200px" height="40px" viewBox="0 0 200 40" enable-background="new 0 0 200 40" xml:space="preserve">
<g>
	<path fill="#42A0DE" d="M6.777,21.617c1.313,0.492,2.637,0.973,3.973,1.441c-0.633,3.727-1.453,8.309-2.461,13.746
		c-1.5-0.492-2.93-0.902-4.289-1.23C4.867,32.223,5.793,27.57,6.777,21.617z M6.707,11.703c1.992,1.617,3.563,3,4.711,4.148
		l-2.883,3.305c-1.664-1.641-3.164-3.094-4.5-4.359L6.707,11.703z M10.785,27.488h5.203V25.59H11.77V10.824h4.219V8.926H10.82v-2.18
		L8.184,9.523C6.871,8.07,5.5,6.629,4.07,5.199l2.813-2.813c1.57,1.336,2.883,2.508,3.938,3.516V5.129h5.168V2.105h4.148v3.023
		h4.711v3.797h-4.711v1.898h4.113V25.59h-4.113v1.898h4.781v3.234c0.703-2.508,1.043-5.613,1.02-9.316V3.371h11.426v29.25
		c0,2.555-1.113,3.832-3.34,3.832c-1.359,0.094-2.707,0.129-4.043,0.105c-0.234-1.406-0.563-2.73-0.984-3.973
		c0.914,0.07,1.934,0.105,3.059,0.105c0.867,0,1.301-0.457,1.301-1.371v-6.258H29.84c-0.164,5.344-1.113,9.445-2.848,12.305
		c-1.148-0.914-2.426-1.828-3.832-2.742c0.633-0.961,1.16-2.074,1.582-3.34h-4.605v5.414h-4.148v-5.414h-5.203V27.488z
		 M20.699,14.375H15.32v2.215h5.379V14.375z M20.699,22.039v-2.215H15.32v2.215H20.699z M33.355,7.238h-3.48v4.992h3.48V7.238z
		 M29.875,21.195h3.48v-5.098h-3.48V21.195z"/>
	<path fill="#42A0DE" d="M43.199,16.484h28.266v12.797h-4.711v-1.547H47.541c-0.668,3.891-2.232,6.961-4.693,9.211l-3.305-3.867
		c2.438-2.086,3.656-5.414,3.656-9.984V16.484z M42.637,10.719H54.66V8.68H40.316V4.531H54.66V2h5.133v2.531h14.063V8.68H59.793
		v2.039h11.742v3.867H42.637V10.719z M47.91,20.352v3.305h7.031v-3.305H47.91z M66.754,20.352h-7.031v3.305h7.031V20.352z"/>
	<path fill="#42A0DE" d="M78.777,21.617c1.313,0.492,2.637,0.973,3.973,1.441c-0.633,3.727-1.453,8.309-2.461,13.746
		c-1.5-0.492-2.93-0.902-4.289-1.23C76.867,32.223,77.793,27.57,78.777,21.617z M78.707,11.703c1.992,1.617,3.563,3,4.711,4.148
		l-2.883,3.305c-1.664-1.641-3.164-3.094-4.5-4.359L78.707,11.703z M82.785,27.488h5.203V25.59H83.77V10.824h4.219V8.926H82.82
		v-2.18l-2.637,2.777C78.871,8.07,77.5,6.629,76.07,5.199l2.813-2.813c1.57,1.336,2.883,2.508,3.938,3.516V5.129h5.168V2.105h4.148
		v3.023h4.711v3.797h-4.711v1.898h4.113V25.59h-4.113v1.898h4.781v3.234c0.703-2.508,1.042-5.613,1.019-9.316V3.371h11.426v29.25
		c0,2.555-1.113,3.832-3.34,3.832c-1.359,0.094-2.707,0.129-4.043,0.105c-0.234-1.406-0.563-2.73-0.984-3.973
		c0.914,0.07,1.934,0.105,3.059,0.105c0.867,0,1.301-0.457,1.301-1.371v-6.258h-3.516c-0.164,5.344-1.113,9.445-2.848,12.305
		c-1.148-0.914-2.425-1.828-3.832-2.742c0.633-0.961,1.16-2.074,1.582-3.34h-4.605v5.414h-4.148v-5.414h-5.203V27.488z
		 M92.699,14.375H87.32v2.215h5.379V14.375z M92.699,22.039v-2.215H87.32v2.215H92.699z M105.355,7.238h-3.48v4.992h3.48V7.238z
		 M101.875,21.195h3.48v-5.098h-3.48V21.195z"/>
	<path fill="#42A0DE" d="M111.472,33.5c1.875-1.57,3.586-3.293,5.133-5.168l2.918,2.285c-0.68,0.785-1.354,1.523-2.021,2.215
		l1.916,0.141c0.984,0,1.477-0.656,1.477-1.969v-2.742h-6.82v-7.594h16.875v7.594h-6.047v4.184c0,1.102-0.202,1.96-0.606,2.575
		s-0.949,0.999-1.635,1.151s-2.224,0.211-4.614,0.176c-0.223-1.184-0.463-2.291-0.721-3.322c-1.137,1.195-2.244,2.279-3.322,3.252
		L111.472,33.5z M111.964,15.992h8.508l-0.404-1.441h-6.627V3.652h18.105v10.898h-6.943l0.229,1.441h8.684v3.375h-21.551V15.992z
		 M127.644,6.395h-10.266v1.477h10.266V6.395z M127.644,11.809v-1.477h-10.266v1.477H127.644z M127.011,25.344v-1.758h-9v1.758
		H127.011z M125.992,30.617l2.531-2.32c1.313,1.16,2.713,2.443,4.201,3.85c3.809-2.719,7.389-5.924,10.74-9.615l3.445,3.48
		c-3.656,4.055-7.758,7.758-12.305,11.109c-0.586-0.914-1.512-2.156-2.777-3.727l-1.793,1.617
		C128.628,33.348,127.281,31.883,125.992,30.617z M132.285,9.488c3.75-2.063,7.148-4.441,10.195-7.137l3.164,3.305
		c-3.656,3.141-7.23,5.766-10.723,7.875C134.054,12.055,133.175,10.707,132.285,9.488z M132.285,20.703
		c4.008-2.461,7.805-5.484,11.391-9.07l3.27,3.34c-3.492,3.492-7.441,6.773-11.848,9.844
		C134.23,23.363,133.292,21.992,132.285,20.703z"/>
</g>
</svg>
