<?xml version="1.0" encoding="utf-8"?>
<!-- Generator: Adobe Illustrator 17.0.0, SVG Export Plug-In . SVG Version: 6.00 Build 0)  -->
<!DOCTYPE svg PUBLIC "-//W3C//DTD SVG 1.1//EN" "http://www.w3.org/Graphics/SVG/1.1/DTD/svg11.dtd">
<svg version="1.1" id="图层_1" xmlns="http://www.w3.org/2000/svg" xmlns:xlink="http://www.w3.org/1999/xlink" x="0px" y="0px"
	 width="200px" height="40px" viewBox="0 0 200 40" enable-background="new 0 0 200 40" xml:space="preserve">
<g>
	<path fill="#42A0DE" d="M13.055,1.688l6.047,0.809c-0.445,1.16-0.955,2.438-1.529,3.832H32.32v29.953h-5.414v-2.18H8.414v2.25H3
		V6.328h8.895C12.457,4.266,12.844,2.719,13.055,1.688z M26.906,11.32H8.414v6.469h18.492V11.32z M8.414,29.109h18.492v-6.469H8.414
		V29.109z"/>
	<path fill="#42A0DE" d="M45.082,22.5c3.375-3.563,6.076-7.828,8.104-12.797h-8.139l3.938,1.371
		c-1.313,2.426-2.672,4.705-4.078,6.838v18.65h-4.711V24.275c-0.727,0.879-1.465,1.717-2.215,2.514
		c-0.539-2.039-1.09-3.867-1.652-5.484c2.742-2.859,5.367-6.727,7.875-11.602H36.82V5.414h14.168
		c-0.398-0.996-0.738-1.816-1.02-2.461l5.063-1.266c0.445,0.973,0.984,2.215,1.617,3.727h14.273v4.289H53.537l4.166,1.441
		c-0.305,0.656-0.615,1.301-0.932,1.934h11.689v3.867c-1.371,4.125-3.521,7.746-6.451,10.863c2.719,1.594,5.865,2.719,9.439,3.375
		c-0.703,1.406-1.488,3.117-2.355,5.133c-4.113-1.301-7.664-3.047-10.652-5.238c-2.789,2.18-6.07,4.055-9.844,5.625
		c-0.844-1.523-1.828-3-2.953-4.43c3.563-1.219,6.627-2.66,9.193-4.324c-1.512-1.57-2.824-3.305-3.938-5.203
		c-0.75,0.996-1.518,1.957-2.303,2.883C47.449,24.551,46.277,23.508,45.082,22.5z M55.031,18.703l2.021-1.512h-2.496
		c-0.363,0.609-0.732,1.213-1.107,1.811c1.348,2.402,3.006,4.477,4.975,6.223c2.555-2.344,4.354-5.021,5.396-8.033h-5.73
		c1.383,1.5,2.355,2.613,2.918,3.34l-2.883,2.285C56.836,21.035,55.805,19.664,55.031,18.703z"/>
	<path fill="#42A0DE" d="M106.957,27.844h-9.598c-0.047,0.094-0.094,0.188-0.141,0.281c3.352,1.477,6.773,3.047,10.266,4.711
		l-2.461,3.973c-3.328-1.852-6.738-3.656-10.23-5.414c-2.227,2.344-5.766,4.16-10.617,5.449c-1.078-1.875-2.039-3.434-2.883-4.676
		c5.25-0.797,8.824-2.238,10.723-4.324H82.91c0.07,0.914,0.164,1.816,0.281,2.707c-2.555,1.898-4.676,3.691-6.363,5.379l-2.461-3.34
		c0.609-0.633,0.914-1.617,0.914-2.953V17.789h-2.953v-4.57h7.664v14.309c0.867-0.703,1.605-1.348,2.215-1.934v-1.652h6.117
		c-1.922-0.727-3.961-1.395-6.117-2.004l1.406-2.918c2.063,0.539,4.629,1.336,7.699,2.391l-1.301,2.531h3.516
		c0.563-2.109,0.844-4.945,0.844-8.508h4.781c0,3.305-0.293,6.141-0.879,8.508h8.684V27.844z M77.039,2.285
		c1.617,2.109,3.129,4.254,4.535,6.434c-1.078,0.68-2.449,1.5-4.113,2.461c-1.313-2.391-2.719-4.617-4.219-6.68L77.039,2.285z
		 M107.203,10.828v3.762l-1.195,5.027l-4.43-0.668l1.371-4.148H86.707c1.828,0.586,3.961,1.336,6.398,2.25l-1.688,3.164
		c-2.109-0.961-4.465-1.875-7.066-2.742l1.406-2.672H81.82v-3.973h10.301V8.613h-8.719V4.746h8.719V1.898h4.852v2.848h8.859v3.867
		h-8.859v2.215H107.203z"/>
	<path fill="#42A0DE" d="M110.93,7.383h9.141V1.898h5.098v5.484h9.686c-0.996-0.738-2.033-1.477-3.111-2.215l3.023-3.234
		c2.93,1.898,5.625,3.809,8.086,5.73l-3.27,3.516c-0.715-0.621-1.465-1.248-2.25-1.881l-0.615,8.771h5.15
		c-0.164,4.852-0.346,8.142-0.545,9.87s-0.841,3.094-1.925,4.096s-2.663,1.503-4.737,1.503c-2.203,0-3.844-0.035-4.922-0.105
		c-0.188-1.43-0.539-3.105-1.055-5.027c1.523,0.211,3.059,0.316,4.605,0.316c0.926,0,1.644-0.199,2.153-0.598
		s0.82-0.961,0.932-1.688s0.196-2.063,0.255-4.008h-11.461v14.027h-5.098V22.43h-11.602V18.07h11.602v-6.398h-9.141V7.383z
		 M132.164,11.672h-6.996v6.398h6.539L132.164,11.672z"/>
	<path fill="#42A0DE" d="M165.633,1.898l-0.984,1.195c3.023,4.43,7.898,8.203,14.625,11.32c-1.242,1.523-2.297,2.906-3.164,4.148
		c-1.758-0.938-3.398-1.922-4.922-2.953V18h-18.844v-2.602c-1.523,1.031-3.164,2.063-4.922,3.094
		c-0.68-0.961-1.734-2.344-3.164-4.148c7.688-4.055,12.797-8.203,15.328-12.445H165.633z M145.664,20.953h32.273v4.43h-8.754
		c2.227,2.695,4.629,5.73,7.207,9.105l-4.289,2.602c-0.516-0.75-1.055-1.535-1.617-2.355c-4.453,0.164-10.031,0.445-16.734,0.844
		c-1.008,0.07-2.238,0.246-3.691,0.527l-2.109-4.254c2.156-1.547,4.289-3.703,6.398-6.469h-8.684V20.953z M161.766,6.961
		c-1.664,2.18-4.008,4.406-7.031,6.68h13.781C165.867,11.578,163.617,9.352,161.766,6.961z M164.859,27.211l3.023-1.828h-7.418
		c-1.219,1.547-2.766,3.316-4.641,5.309c2.719,0,6.527-0.105,11.426-0.316C166.5,29.367,165.703,28.313,164.859,27.211z"/>
</g>
</svg>
