<?xml version="1.0" encoding="utf-8"?>
<!-- Generator: Adobe Illustrator 17.0.0, SVG Export Plug-In . SVG Version: 6.00 Build 0)  -->
<!DOCTYPE svg PUBLIC "-//W3C//DTD SVG 1.1//EN" "http://www.w3.org/Graphics/SVG/1.1/DTD/svg11.dtd">
<svg version="1.1" id="图层_1" xmlns="http://www.w3.org/2000/svg" xmlns:xlink="http://www.w3.org/1999/xlink" x="0px" y="0px"
	 width="20px" height="20px" viewBox="0 0 20 20" enable-background="new 0 0 20 20" xml:space="preserve">
<path fill="#80868F" d="M18,5.641c0,2.533,0,3.801,0,6.334c-3-1.932-4,1.383-8,0.42V19H9v-7.025l0,0c0-2.533,0-3.801,0-6.334
	C13,7.768,15,3.514,18,5.641z M11.69,5.255c0.734,0,1.202-0.268,1.961-0.551C13.844,4.632,14,4.559,14,4.487c0-0.81,0-1.674,0-2.711
	c-4-2.688-7,2.688-12,0c0,1.6,0,2.8,0,4v4V19h1v-8.773c2,0.688,3,0.115,5-0.457V5.641c0-0.355,0.437-0.683,0.744-0.862
	C8.9,4.688,9.2,4.641,9.374,4.641c0.169,0,0.399,0.043,0.551,0.128C10.51,5.096,11.13,5.255,11.69,5.255z"/>
</svg>
