<?xml version="1.0" encoding="utf-8"?>
<!-- Generator: Adobe Illustrator 17.0.0, SVG Export Plug-In . SVG Version: 6.00 Build 0)  -->
<!DOCTYPE svg PUBLIC "-//W3C//DTD SVG 1.1//EN" "http://www.w3.org/Graphics/SVG/1.1/DTD/svg11.dtd">
<svg version="1.1" id="图层_1" xmlns="http://www.w3.org/2000/svg" xmlns:xlink="http://www.w3.org/1999/xlink" x="0px" y="0px"
	 width="36px" height="36px" viewBox="0 0 36 36" enable-background="new 0 0 36 36" xml:space="preserve">
<path fill="#FFFFFF" d="M18,0C8.059,0,0,8.059,0,18c0,9.941,8.059,18,18,18c4.461,0,8.535-1.632,11.68-4.32L36,36l-2-9.778
	c1.27-2.466,2-5.257,2-8.222C36,8.059,27.941,0,18,0z M9,21c-1.657,0-3-1.343-3-3s1.343-3,3-3s3,1.343,3,3S10.657,21,9,21z M18,21
	c-1.657,0-3-1.343-3-3s1.343-3,3-3s3,1.343,3,3S19.657,21,18,21z M27,21c-1.657,0-3-1.343-3-3s1.343-3,3-3s3,1.343,3,3
	S28.657,21,27,21z"/>
</svg>
