<?xml version="1.0" encoding="utf-8"?>
<!-- Generator: Adobe Illustrator 17.0.0, SVG Export Plug-In . SVG Version: 6.00 Build 0)  -->
<!DOCTYPE svg PUBLIC "-//W3C//DTD SVG 1.1//EN" "http://www.w3.org/Graphics/SVG/1.1/DTD/svg11.dtd">
<svg version="1.1" id="图层_1" xmlns="http://www.w3.org/2000/svg" xmlns:xlink="http://www.w3.org/1999/xlink" x="0px" y="0px"
	 width="88px" height="56px" viewBox="0 0 88 56" enable-background="new 0 0 88 56" xml:space="preserve">
<g>
	<path fill="#FFFFFF" d="M37.093,30.598h-1.485v0.699c0,0.156-0.031,0.259-0.091,0.31c-0.06,0.052-0.247,0.152-0.563,0.298
		c-0.316,0.147-0.714,0.271-1.192,0.375c-0.137,0-0.205-0.068-0.205-0.207l0.051-1.528c0.016-0.447,0.025-1.018,0.025-1.707v-3.144
		c0-0.725-0.025-1.458-0.076-2.201c0.887,0.294,1.673,0.539,2.357,0.885h1.358v-3.07h-3.075c-0.462,0-0.82,0.052-1.076,0.156
		l-0.666-1.19c0.358,0.086,0.785,0.129,1.28,0.129h3.537v-1.916c0-0.863-0.017-1.815-0.051-2.487
		c2.049,0.465,3.074,0.872,3.074,1.217c0,0.172-0.325,0.372-0.973,0.595v2.592h1.947l0.692-0.932
		c0.188-0.258,0.358-0.387,0.512-0.387s0.513,0.284,1.077,0.854c0.564,0.569,0.846,0.941,0.846,1.112
		c0,0.173-0.162,0.259-0.487,0.259h-4.586v3.07h1.932l0.512-0.601c0.137-0.19,0.265-0.285,0.385-0.285
		c0.119,0,0.507,0.225,1.165,0.673c0.658,0.45,0.986,0.748,0.986,0.894c0,0.147-0.273,0.384-0.82,0.712v2.134
		c0,0.776,0.013,1.41,0.038,1.902s0.039,0.785,0.039,0.881c0,0.094-0.077,0.189-0.231,0.285c-0.154,0.094-0.457,0.229-0.91,0.401
		c-0.453,0.173-0.739,0.258-0.859,0.258s-0.179-0.138-0.179-0.415v-0.62h-2.163v3.221h1.896l0.716-0.932
		c0.188-0.259,0.355-0.389,0.5-0.389c0.146,0,0.517,0.285,1.115,0.854c0.597,0.569,0.896,0.941,0.896,1.112
		c0,0.173-0.18,0.258-0.538,0.258h-4.586v4.078c0,0.173-0.022,0.276-0.064,0.31c-0.042,0.035-0.223,0.125-0.538,0.272
		c-0.317,0.146-0.633,0.271-0.949,0.375c-0.316,0.103-0.508,0.154-0.577,0.154c-0.068,0-0.102-0.076-0.102-0.232l0.05-1.216
		c0.035-0.828,0.051-1.597,0.051-2.303v-1.439h-4.073c-0.461,0-0.82,0.053-1.076,0.156l-0.462-1.191
		c0.359,0.087,0.785,0.131,1.281,0.131h4.33L37.093,30.598L37.093,30.598z M35.608,27.06h5.775v-1.805h-5.775V27.06z M41.383,27.861
		h-5.775v1.856h5.775V27.861z M48.911,18.358h2.794l0.563-0.828c0.171-0.259,0.337-0.389,0.5-0.389c0.162,0,0.611,0.263,1.345,0.789
		c0.735,0.527,1.102,0.867,1.102,1.023c0,0.155-0.333,0.406-0.999,0.75v17.313c0,0.638-0.077,1.117-0.23,1.436
		c-0.154,0.319-0.509,0.66-1.064,1.022C52.366,39.839,51.999,40,51.82,40c-0.18,0-0.312-0.111-0.398-0.37
		c-0.188-0.586-0.491-1.03-0.91-1.332c-0.419-0.302-1.234-0.678-2.447-1.126l0.102-0.596c1.385,0.293,2.281,0.44,2.691,0.44
		s0.696-0.043,0.858-0.13c0.162-0.086,0.243-0.284,0.243-0.595v-5.605h-3.69c-0.404,2.366-0.752,3.444-1.793,4.918
		c-1.044,1.475-2.76,2.836-5.151,4.303l-0.282-0.382c1.828-1.674,3.058-3.049,3.691-4.128c0.632-1.077,1.054-2.382,1.268-3.908
		c0.213-1.527,0.345-3.313,0.397-5.357c0.051-2.045,0.068-5.042,0.051-8.994C47.39,17.521,48.21,17.927,48.911,18.358z
		 M51.96,25.142H48.5l-0.179,4.614h3.638L51.96,25.142L51.96,25.142z M48.527,24.234h3.434v-4.971H48.63
		C48.595,21.196,48.561,23.268,48.527,24.234z M37.093,30.598h-1.485v0.699c0,0.156-0.031,0.259-0.091,0.31
		c-0.06,0.052-0.247,0.152-0.563,0.298c-0.316,0.147-0.714,0.271-1.192,0.375c-0.137,0-0.205-0.068-0.205-0.207l0.051-1.528
		c0.016-0.447,0.025-1.018,0.025-1.707v-3.144c0-0.725-0.025-1.458-0.076-2.201c0.887,0.294,1.673,0.539,2.357,0.885h1.358v-3.07
		h-3.075c-0.462,0-0.82,0.052-1.076,0.156l-0.666-1.19c0.358,0.086,0.785,0.129,1.28,0.129h3.537v-1.916
		c0-0.863-0.017-1.815-0.051-2.487c2.049,0.465,3.074,0.872,3.074,1.217c0,0.172-0.325,0.372-0.973,0.595v2.592h1.947l0.692-0.932
		c0.188-0.258,0.358-0.387,0.512-0.387s0.513,0.284,1.077,0.854c0.564,0.569,0.846,0.941,0.846,1.112
		c0,0.173-0.162,0.259-0.487,0.259h-4.586v3.07h1.932l0.512-0.601c0.137-0.19,0.265-0.285,0.385-0.285
		c0.119,0,0.507,0.225,1.165,0.673c0.658,0.45,0.986,0.748,0.986,0.894c0,0.147-0.273,0.384-0.82,0.712v2.134
		c0,0.776,0.013,1.41,0.038,1.902s0.039,0.785,0.039,0.881c0,0.094-0.077,0.189-0.231,0.285c-0.154,0.094-0.457,0.229-0.91,0.401
		c-0.453,0.173-0.739,0.258-0.859,0.258s-0.179-0.138-0.179-0.415v-0.62h-2.163v3.221h1.896l0.716-0.932
		c0.188-0.259,0.355-0.389,0.5-0.389c0.146,0,0.517,0.285,1.115,0.854c0.597,0.569,0.896,0.941,0.896,1.112
		c0,0.173-0.18,0.258-0.538,0.258h-4.586v4.078c0,0.173-0.022,0.276-0.064,0.31c-0.042,0.035-0.223,0.125-0.538,0.272
		c-0.317,0.146-0.633,0.271-0.949,0.375c-0.316,0.103-0.508,0.154-0.577,0.154c-0.068,0-0.102-0.076-0.102-0.232l0.05-1.216
		c0.035-0.828,0.051-1.597,0.051-2.303v-1.439h-4.073c-0.461,0-0.82,0.053-1.076,0.156l-0.462-1.191
		c0.359,0.087,0.785,0.131,1.281,0.131h4.33L37.093,30.598L37.093,30.598z M35.608,27.06h5.775v-1.805h-5.775V27.06z M41.383,27.861
		h-5.775v1.856h5.775V27.861z M48.911,18.358h2.794l0.563-0.828c0.171-0.259,0.337-0.389,0.5-0.389c0.162,0,0.611,0.263,1.345,0.789
		c0.735,0.527,1.102,0.867,1.102,1.023c0,0.155-0.333,0.406-0.999,0.75v17.313c0,0.638-0.077,1.117-0.23,1.436
		c-0.154,0.319-0.509,0.66-1.064,1.022C52.366,39.839,51.999,40,51.82,40c-0.18,0-0.312-0.111-0.398-0.37
		c-0.188-0.586-0.491-1.03-0.91-1.332c-0.419-0.302-1.234-0.678-2.447-1.126l0.102-0.596c1.385,0.293,2.281,0.44,2.691,0.44
		s0.696-0.043,0.858-0.13c0.162-0.086,0.243-0.284,0.243-0.595v-5.605h-3.69c-0.404,2.366-0.752,3.444-1.793,4.918
		c-1.044,1.475-2.76,2.836-5.151,4.303l-0.282-0.382c1.828-1.674,3.058-3.049,3.691-4.128c0.632-1.077,1.054-2.382,1.268-3.908
		c0.213-1.527,0.345-3.313,0.397-5.357c0.051-2.045,0.068-5.042,0.051-8.994C47.39,17.521,48.21,17.927,48.911,18.358z
		 M51.96,25.142H48.5l-0.179,4.614h3.638L51.96,25.142L51.96,25.142z M48.527,24.234h3.434v-4.971H48.63
		C48.595,21.196,48.561,23.268,48.527,24.234z M17.618,23.216v13.658c0,0.956-0.163,1.612-0.487,1.968
		c-0.324,0.355-0.833,0.484-1.525,0.754C14.915,39.864,14.471,40,14.274,40c-0.197,0-0.32-0.113-0.372-0.339
		c-0.17-0.713-0.452-1.041-0.846-1.353c-0.393-0.313-1.221-0.687-2.486-1.121l0.103-0.548c1.503,0.295,2.554,0.443,3.151,0.443
		c0.598,0,0.969-0.091,1.115-0.274c0.145-0.181,0.218-0.482,0.218-0.899V18.393c0-1.493-0.018-2.046-0.052-2.394
		c2.306,0.625,3.458,1.078,3.458,1.356c0,0.139-0.316,0.391-0.948,0.756v1.377c0.495,2.399,1.154,4.483,1.973,6.256
		c2.187-2.259,3.403-4.942,4.377-6.349c0.427,0.33,0.888,0.751,1.383,1.264c0.494,0.512,0.799,0.844,0.91,0.99
		c0.111,0.149,0.167,0.274,0.167,0.378c0,0.192-0.171,0.253-0.513,0.183c-0.136-0.018-0.256-0.027-0.358-0.027
		c-0.341,0-0.204-0.202-0.751,0.198c-1.162,0.869-2.926,3.085-4.855,4.144c1.913,3.875,4.936,6.621,9.071,8.236l-0.104,0.625
		c-0.41-0.051-0.794-0.077-1.152-0.077c-0.359,0-0.684,0.096-0.974,0.287c-0.291,0.192-0.581,0.53-0.872,1.017
		c-0.085,0.139-0.188,0.208-0.307,0.208c-0.393,0-1.559-1.094-3.497-3.284C20.175,31.348,18.676,27.909,17.618,23.216z
		 M6.318,24.469c-0.514,0-0.953-0.042-1.319-0.126l0.423,1.038c0.215-0.101,0.53-0.152,0.944-0.152h4.803
		c-0.482,3.104-1.175,5.535-2.078,7.288c-0.904,1.756-2.243,3.324-4.017,4.708l0.223,0.481c1.757-1.081,3.056-2.008,3.893-2.784
		c0.838-0.777,1.535-1.738,2.091-2.886c0.555-1.146,1.181-2.877,1.876-5.188c0.25-0.826,0.499-1.282,0.748-1.366
		c0.364-0.136,0.547-0.288,0.547-0.455c0-0.169-0.121-0.351-0.361-0.545s-0.593-0.455-1.058-0.785
		c-0.464-0.329-0.753-0.494-0.87-0.494s-0.223,0.06-0.324,0.177l-0.921,1.088L6.318,24.469L6.318,24.469z M17.618,23.216v13.658
		c0,0.956-0.163,1.612-0.487,1.968c-0.324,0.355-0.833,0.484-1.525,0.754C14.915,39.864,14.471,40,14.274,40
		c-0.197,0-0.32-0.113-0.372-0.339c-0.17-0.713-0.452-1.041-0.846-1.353c-0.393-0.313-1.221-0.687-2.486-1.121l0.103-0.548
		c1.503,0.295,2.554,0.443,3.151,0.443c0.598,0,0.969-0.091,1.115-0.274c0.145-0.181,0.218-0.482,0.218-0.899V18.393
		c0-1.493-0.018-2.046-0.052-2.394c2.306,0.625,3.458,1.078,3.458,1.356c0,0.139-0.316,0.391-0.948,0.756v1.377
		c0.495,2.399,1.154,4.483,1.973,6.256c2.187-2.259,3.403-4.942,4.377-6.349c0.427,0.33,0.888,0.751,1.383,1.264
		c0.494,0.512,0.799,0.844,0.91,0.99c0.111,0.149,0.167,0.274,0.167,0.378c0,0.192-0.171,0.253-0.513,0.183
		c-0.136-0.018-0.256-0.027-0.358-0.027c-0.341,0-0.204-0.202-0.751,0.198c-1.162,0.869-2.926,3.085-4.855,4.144
		c1.913,3.875,4.936,6.621,9.071,8.236l-0.104,0.625c-0.41-0.051-0.794-0.077-1.152-0.077c-0.359,0-0.684,0.096-0.974,0.287
		c-0.291,0.192-0.581,0.53-0.872,1.017c-0.085,0.139-0.188,0.208-0.307,0.208c-0.393,0-1.559-1.094-3.497-3.284
		C20.175,31.348,18.676,27.909,17.618,23.216z M6.318,24.469c-0.514,0-0.953-0.042-1.319-0.126l0.423,1.038
		c0.215-0.101,0.53-0.152,0.944-0.152h4.803c-0.482,3.104-1.175,5.535-2.078,7.288c-0.904,1.756-2.243,3.324-4.017,4.708
		l0.223,0.481c1.757-1.081,3.056-2.008,3.893-2.784c0.838-0.777,1.535-1.738,2.091-2.886c0.555-1.146,1.181-2.877,1.876-5.188
		c0.25-0.826,0.499-1.282,0.748-1.366c0.364-0.136,0.547-0.288,0.547-0.455c0-0.169-0.121-0.351-0.361-0.545
		s-0.593-0.455-1.058-0.785c-0.464-0.329-0.753-0.494-0.87-0.494s-0.223,0.06-0.324,0.177l-0.921,1.088L6.318,24.469L6.318,24.469z
		 M72.952,31.015c-0.357-0.21-0.458-0.273-0.854-0.263c-0.277,0.007-0.508-0.056-0.702-0.158c-0.474,0.552-0.962,1.085-1.482,1.57
		c-2.691,2.508-6.398,5.509-11.523,7.319L58.597,40c4.031-1.035,7.026-3.022,9.383-4.281c2.229-1.188,4.059-2.632,5.501-4.321
		C73.324,31.262,73.172,31.146,72.952,31.015z M72.952,31.015c-0.357-0.21-0.458-0.273-0.854-0.263
		c-0.277,0.007-0.508-0.056-0.702-0.158c-0.474,0.552-0.962,1.085-1.482,1.57c-2.691,2.508-6.398,5.509-11.523,7.319L58.597,40
		c4.031-1.035,7.026-3.022,9.383-4.281c2.229-1.188,4.059-2.632,5.501-4.321C73.324,31.262,73.172,31.146,72.952,31.015z
		 M78.755,20.802c-0.863-0.689-1.381-1.034-1.551-1.034c-0.085,0-0.162,0.052-0.231,0.155l-0.919,1.135h-7.738l1.223-2.188
		c0.222-0.378,0.5-1.035,0.984-1.232c0.311-0.125,0.632-0.289,0.531-0.406c-0.29-0.334-1.987-1.17-3.124-1.231
		c-1.674,6.05-4.636,10.446-8.891,14.29l0.41,0.44c2.614-1.896,4.664-3.775,6.15-5.636l0.358-0.492
		c0.666-0.895,1.362-1.81,1.91-2.706h8.378c-0.396,1.166-0.885,2.266-1.397,3.303c0.589,0.569,1.1,1.209,1.563,1.886
		c0.595-1.043,1.193-2.18,1.794-3.44c0.188-0.378,0.351-0.646,0.487-0.801s0.396-0.25,0.782-0.284
		c0.384-0.035,0.576-0.164,0.576-0.389C80.048,21.948,79.617,21.49,78.755,20.802z"/>
	<path fill="#FFFFFF" d="M63.513,29.05c0,0,5.448-3.877,8.063-3.28c2.613,0.598,3.917,4.369,5.255,3.669
		c1.337-0.701,2.629-4.337,6.169,1.09c0,0-2.693-1.67-3.76-1.095c-1.065,0.575-2.788,2.367-3.102,2.344
		c-0.314-0.025-2.011-3.588-5.574-3.482C67.002,28.403,63.513,29.05,63.513,29.05z"/>
</g>
</svg>
