<?xml version="1.0" encoding="utf-8"?>
<!-- Generator: Adobe Illustrator 17.0.0, SVG Export Plug-In . SVG Version: 6.00 Build 0)  -->
<!DOCTYPE svg PUBLIC "-//W3C//DTD SVG 1.1//EN" "http://www.w3.org/Graphics/SVG/1.1/DTD/svg11.dtd">
<svg version="1.1" id="图层_1" xmlns="http://www.w3.org/2000/svg" xmlns:xlink="http://www.w3.org/1999/xlink" x="0px" y="0px"
	 width="156px" height="48px" viewBox="0 0 156 48" enable-background="new 0 0 156 48" xml:space="preserve">
<g>
	<path fill="#FFFFFF" d="M64.187,29.196h-2.97v1.398c0,0.311-0.062,0.517-0.182,0.621c-0.119,0.103-0.494,0.303-1.125,0.595
		c-0.633,0.294-1.428,0.543-2.384,0.749c-0.274,0-0.41-0.136-0.41-0.413l0.103-3.055c0.033-0.894,0.05-2.036,0.05-3.414v-6.288
		c0-1.45-0.05-2.916-0.153-4.401c1.775,0.588,3.347,1.079,4.715,1.77h2.716v-6.14h-6.15c-0.923,0-1.64,0.104-2.152,0.311
		l-1.332-2.38c0.716,0.172,1.571,0.257,2.561,0.257h7.073V4.974c0-1.725-0.033-3.629-0.101-4.974
		c4.097,0.931,6.147,1.744,6.147,2.433c0,0.345-0.65,0.743-1.947,1.19v5.184h3.894l1.384-1.864C74.3,6.428,74.641,6.17,74.948,6.17
		c0.309,0,1.027,0.568,2.154,1.709c1.128,1.138,1.691,1.881,1.691,2.224c0,0.346-0.324,0.517-0.974,0.517h-9.172v6.14h3.865
		l1.024-1.201c0.274-0.38,0.531-0.569,0.77-0.569c0.239,0,1.015,0.449,2.331,1.345c1.315,0.9,1.973,1.497,1.973,1.788
		c0,0.294-0.547,0.767-1.64,1.423v4.269c0,1.552,0.027,2.82,0.077,3.804c0.05,0.983,0.078,1.57,0.078,1.761
		c0,0.189-0.155,0.379-0.462,0.569c-0.308,0.189-0.915,0.458-1.819,0.801c-0.907,0.346-1.478,0.517-1.718,0.517
		c-0.239,0-0.358-0.275-0.358-0.829v-1.241h-4.325v6.442h3.792l1.433-1.864c0.376-0.518,0.71-0.777,1-0.777
		c0.291,0,1.034,0.569,2.23,1.707c1.195,1.139,1.793,1.882,1.793,2.225c0,0.346-0.359,0.517-1.075,0.517h-9.172v8.157
		c0,0.345-0.044,0.552-0.129,0.62c-0.085,0.069-0.446,0.251-1.076,0.545c-0.634,0.291-1.266,0.543-1.897,0.751
		c-0.633,0.206-1.017,0.308-1.154,0.308c-0.136,0-0.203-0.153-0.203-0.465l0.101-2.433c0.069-1.656,0.102-3.193,0.102-4.605v-2.878
		h-8.146c-0.922,0-1.64,0.105-2.151,0.312l-0.924-2.382c0.719,0.174,1.57,0.261,2.562,0.261h8.659V29.196z M61.217,22.12h11.55
		v-3.61h-11.55V22.12z M72.767,23.723h-11.55v3.713h11.55V23.723z M87.822,4.715h5.587l1.127-1.656
		c0.341-0.518,0.674-0.777,0.999-0.777c0.324,0,1.222,0.526,2.69,1.578c1.469,1.054,2.204,1.735,2.204,2.045
		c0,0.309-0.667,0.812-1.998,1.501v34.627c0,1.275-0.154,2.233-0.461,2.872c-0.308,0.639-1.018,1.32-2.128,2.045
		c-1.11,0.726-1.844,1.05-2.202,1.05c-0.36,0-0.624-0.222-0.796-0.74c-0.375-1.172-0.982-2.06-1.819-2.664
		c-0.838-0.604-2.468-1.355-4.894-2.252l0.204-1.191c2.769,0.586,4.562,0.881,5.382,0.881c0.82,0,1.392-0.086,1.717-0.26
		c0.324-0.172,0.487-0.568,0.487-1.189V29.375h-7.38c-0.808,4.732-1.503,6.887-3.586,9.836c-2.087,2.95-5.519,5.673-10.301,8.606
		l-0.564-0.763c3.656-3.349,6.116-6.099,7.381-8.257c1.263-2.155,2.108-4.763,2.536-7.815c0.426-3.054,0.691-6.625,0.795-10.714
		c0.102-4.09,0.135-10.084,0.102-17.987C84.78,3.043,86.421,3.852,87.822,4.715z M93.92,18.282h-6.919l-0.358,9.228h7.277V18.282z
		 M87.054,16.469h6.867V6.527h-6.662C87.19,10.392,87.123,14.536,87.054,16.469z M64.187,29.196h-2.97v1.398
		c0,0.311-0.062,0.517-0.182,0.621c-0.119,0.103-0.494,0.303-1.125,0.595c-0.633,0.294-1.428,0.543-2.384,0.749
		c-0.274,0-0.41-0.136-0.41-0.413l0.103-3.055c0.033-0.894,0.05-2.036,0.05-3.414v-6.288c0-1.45-0.05-2.916-0.153-4.401
		c1.775,0.588,3.347,1.079,4.715,1.77h2.716v-6.14h-6.15c-0.923,0-1.64,0.104-2.152,0.311l-1.332-2.38
		c0.716,0.172,1.571,0.257,2.561,0.257h7.073V4.974c0-1.725-0.033-3.629-0.101-4.974c4.097,0.931,6.147,1.744,6.147,2.433
		c0,0.345-0.65,0.743-1.947,1.19v5.184h3.894l1.384-1.864C74.3,6.428,74.641,6.17,74.948,6.17c0.309,0,1.027,0.568,2.154,1.709
		c1.128,1.138,1.691,1.881,1.691,2.224c0,0.346-0.324,0.517-0.974,0.517h-9.172v6.14h3.865l1.024-1.201
		c0.274-0.38,0.531-0.569,0.77-0.569c0.239,0,1.015,0.449,2.331,1.345c1.315,0.9,1.973,1.497,1.973,1.788
		c0,0.294-0.547,0.767-1.64,1.423v4.269c0,1.552,0.027,2.82,0.077,3.804c0.05,0.983,0.078,1.57,0.078,1.761
		c0,0.189-0.155,0.379-0.462,0.569c-0.308,0.189-0.915,0.458-1.819,0.801c-0.907,0.346-1.478,0.517-1.718,0.517
		c-0.239,0-0.358-0.275-0.358-0.829v-1.241h-4.325v6.442h3.792l1.433-1.864c0.376-0.518,0.71-0.777,1-0.777
		c0.291,0,1.034,0.569,2.23,1.707c1.195,1.139,1.793,1.882,1.793,2.225c0,0.346-0.359,0.517-1.075,0.517h-9.172v8.157
		c0,0.345-0.044,0.552-0.129,0.62c-0.085,0.069-0.446,0.251-1.076,0.545c-0.634,0.291-1.266,0.543-1.897,0.751
		c-0.633,0.206-1.017,0.308-1.154,0.308c-0.136,0-0.203-0.153-0.203-0.465l0.101-2.433c0.069-1.656,0.102-3.193,0.102-4.605v-2.878
		h-8.146c-0.922,0-1.64,0.105-2.151,0.312l-0.924-2.382c0.719,0.174,1.57,0.261,2.562,0.261h8.659V29.196z M61.217,22.12h11.55
		v-3.61h-11.55V22.12z M72.767,23.723h-11.55v3.713h11.55V23.723z M87.822,4.715h5.587l1.127-1.656
		c0.341-0.518,0.674-0.777,0.999-0.777c0.324,0,1.222,0.526,2.69,1.578c1.469,1.054,2.204,1.735,2.204,2.045
		c0,0.309-0.667,0.812-1.998,1.501v34.627c0,1.275-0.154,2.233-0.461,2.872c-0.308,0.639-1.018,1.32-2.128,2.045
		c-1.11,0.726-1.844,1.05-2.202,1.05c-0.36,0-0.624-0.222-0.796-0.74c-0.375-1.172-0.982-2.06-1.819-2.664
		c-0.838-0.604-2.468-1.355-4.894-2.252l0.204-1.191c2.769,0.586,4.562,0.881,5.382,0.881c0.82,0,1.392-0.086,1.717-0.26
		c0.324-0.172,0.487-0.568,0.487-1.189V29.375h-7.38c-0.808,4.732-1.503,6.887-3.586,9.836c-2.087,2.95-5.519,5.673-10.301,8.606
		l-0.564-0.763c3.656-3.349,6.116-6.099,7.381-8.257c1.263-2.155,2.108-4.763,2.536-7.815c0.426-3.054,0.691-6.625,0.795-10.714
		c0.102-4.09,0.135-10.084,0.102-17.987C84.78,3.043,86.421,3.852,87.822,4.715z M93.92,18.282h-6.919l-0.358,9.228h7.277V18.282z
		 M87.054,16.469h6.867V6.527h-6.662C87.19,10.392,87.123,14.536,87.054,16.469z M25.236,14.432v27.315
		c0,1.912-0.326,3.225-0.974,3.937c-0.648,0.711-1.665,0.968-3.05,1.508C19.83,47.729,18.942,48,18.549,48
		c-0.393,0-0.64-0.226-0.743-0.678c-0.341-1.425-0.905-2.081-1.691-2.706c-0.786-0.626-2.442-1.373-4.971-2.242l0.205-1.095
		c3.006,0.589,5.107,0.886,6.302,0.886c1.196,0,1.939-0.183,2.23-0.548c0.289-0.363,0.435-0.963,0.435-1.797V4.787
		c0-2.987-0.035-4.092-0.103-4.787c4.612,1.251,6.917,2.155,6.917,2.711c0,0.279-0.632,0.782-1.895,1.512v2.753
		c0.989,4.797,2.307,8.967,3.946,12.512c4.374-4.517,6.806-9.883,8.754-12.698c0.853,0.66,1.776,1.502,2.767,2.527
		c0.989,1.025,1.597,1.687,1.819,1.981c0.222,0.297,0.333,0.548,0.333,0.756c0,0.384-0.342,0.505-1.026,0.365
		c-0.272-0.035-0.511-0.053-0.716-0.053c-0.683,0-0.409-0.404-1.503,0.396c-2.323,1.739-5.851,6.17-9.71,8.289
		c3.825,7.75,9.872,13.241,18.141,16.473l-0.207,1.251c-0.82-0.103-1.588-0.155-2.304-0.155c-0.718,0-1.367,0.192-1.948,0.573
		c-0.582,0.384-1.162,1.06-1.744,2.034c-0.17,0.277-0.376,0.415-0.614,0.415c-0.786,0-3.118-2.188-6.995-6.567
		C30.351,30.696,27.353,23.816,25.236,14.432z M2.637,16.939c-1.028,0-1.907-0.083-2.637-0.253l0.846,2.076
		c0.43-0.203,1.06-0.304,1.889-0.304h9.605c-0.964,6.208-2.35,11.069-4.156,14.576c-1.808,3.511-4.486,6.648-8.034,9.415
		l0.446,0.963c3.514-2.162,6.112-4.016,7.786-5.567c1.675-1.554,3.069-3.476,4.182-5.772c1.11-2.293,2.362-5.753,3.753-10.375
		c0.499-1.653,0.998-2.564,1.495-2.732c0.728-0.272,1.094-0.576,1.094-0.911c0-0.338-0.242-0.701-0.723-1.089
		c-0.48-0.388-1.186-0.911-2.116-1.569c-0.928-0.658-1.507-0.988-1.74-0.988s-0.447,0.12-0.647,0.355l-1.842,2.176H2.637z
		 M25.236,14.432v27.315c0,1.912-0.326,3.225-0.974,3.937c-0.648,0.711-1.665,0.968-3.05,1.508C19.83,47.729,18.942,48,18.549,48
		c-0.393,0-0.64-0.226-0.743-0.678c-0.341-1.425-0.905-2.081-1.691-2.706c-0.786-0.626-2.442-1.373-4.971-2.242l0.205-1.095
		c3.006,0.589,5.107,0.886,6.302,0.886c1.196,0,1.939-0.183,2.23-0.548c0.289-0.363,0.435-0.963,0.435-1.797V4.787
		c0-2.987-0.035-4.092-0.103-4.787c4.612,1.251,6.917,2.155,6.917,2.711c0,0.279-0.632,0.782-1.895,1.512v2.753
		c0.989,4.797,2.307,8.967,3.946,12.512c4.374-4.517,6.806-9.883,8.754-12.698c0.853,0.66,1.776,1.502,2.767,2.527
		c0.989,1.025,1.597,1.687,1.819,1.981c0.222,0.297,0.333,0.548,0.333,0.756c0,0.384-0.342,0.505-1.026,0.365
		c-0.272-0.035-0.511-0.053-0.716-0.053c-0.683,0-0.409-0.404-1.503,0.396c-2.323,1.739-5.851,6.17-9.71,8.289
		c3.825,7.75,9.872,13.241,18.141,16.473l-0.207,1.251c-0.82-0.103-1.588-0.155-2.304-0.155c-0.718,0-1.367,0.192-1.948,0.573
		c-0.582,0.384-1.162,1.06-1.744,2.034c-0.17,0.277-0.376,0.415-0.614,0.415c-0.786,0-3.118-2.188-6.995-6.567
		C30.351,30.696,27.353,23.816,25.236,14.432z M2.637,16.939c-1.028,0-1.907-0.083-2.637-0.253l0.846,2.076
		c0.43-0.203,1.06-0.304,1.889-0.304h9.605c-0.964,6.208-2.35,11.069-4.156,14.576c-1.808,3.511-4.486,6.648-8.034,9.415
		l0.446,0.963c3.514-2.162,6.112-4.016,7.786-5.567c1.675-1.554,3.069-3.476,4.182-5.772c1.11-2.293,2.362-5.753,3.753-10.375
		c0.499-1.653,0.998-2.564,1.495-2.732c0.728-0.272,1.094-0.576,1.094-0.911c0-0.338-0.242-0.701-0.723-1.089
		c-0.48-0.388-1.186-0.911-2.116-1.569c-0.928-0.658-1.507-0.988-1.74-0.988s-0.447,0.12-0.647,0.355l-1.842,2.176H2.637z
		 M135.904,30.031c-0.714-0.42-0.916-0.546-1.708-0.525c-0.554,0.014-1.015-0.111-1.403-0.317c-0.948,1.105-1.924,2.17-2.964,3.139
		c-5.381,5.016-12.796,11.018-23.045,14.637l0.41,1.035c8.062-2.069,14.052-6.045,18.765-8.563
		c4.458-2.377,8.117-5.263,11.001-8.642C136.647,30.525,136.344,30.29,135.904,30.031z M135.904,30.031
		c-0.714-0.42-0.916-0.546-1.708-0.525c-0.554,0.014-1.015-0.111-1.403-0.317c-0.948,1.105-1.924,2.17-2.964,3.139
		c-5.381,5.016-12.796,11.018-23.045,14.637l0.41,1.035c8.062-2.069,14.052-6.045,18.765-8.563
		c4.458-2.377,8.117-5.263,11.001-8.642C136.647,30.525,136.344,30.29,135.904,30.031z M147.509,9.604
		c-1.726-1.378-2.761-2.069-3.101-2.069c-0.171,0-0.324,0.104-0.462,0.31l-1.838,2.27h-15.476l2.445-4.376
		c0.444-0.757,1-2.07,1.967-2.464c0.623-0.251,1.263-0.578,1.061-0.811c-0.581-0.669-3.974-2.34-6.248-2.463
		c-3.348,12.099-9.273,20.893-17.783,28.579l0.821,0.879c5.228-3.792,9.328-7.549,12.3-11.271l0.717-0.984
		c1.332-1.79,2.725-3.621,3.82-5.412h16.756c-0.793,2.332-1.771,4.532-2.794,6.606c1.178,1.139,2.201,2.418,3.125,3.772
		c1.191-2.086,2.386-4.36,3.588-6.879c0.375-0.757,0.701-1.292,0.974-1.602c0.272-0.311,0.793-0.499,1.563-0.567
		c0.768-0.07,1.152-0.328,1.152-0.777C150.096,11.897,149.234,10.981,147.509,9.604z"/>
	<path fill="#FFFFFF" d="M117.026,26.101c0,0,10.896-7.755,16.126-6.56c5.227,1.196,7.835,8.739,10.51,7.339
		c2.673-1.402,5.258-8.674,12.338,2.179c0,0-5.387-3.341-7.519-2.19c-2.131,1.151-5.577,4.734-6.204,4.689
		c-0.629-0.05-4.022-7.177-11.147-6.965C124.004,24.805,117.026,26.101,117.026,26.101z"/>
</g>
</svg>
