<?xml version="1.0" encoding="utf-8"?>
<!-- Generator: Adobe Illustrator 17.0.0, SVG Export Plug-In . SVG Version: 6.00 Build 0)  -->
<!DOCTYPE svg PUBLIC "-//W3C//DTD SVG 1.1//EN" "http://www.w3.org/Graphics/SVG/1.1/DTD/svg11.dtd">
<svg version="1.1" id="图层_1" xmlns="http://www.w3.org/2000/svg" xmlns:xlink="http://www.w3.org/1999/xlink" x="0px" y="0px"
	 width="42px" height="24px" viewBox="0 0 42 24" enable-background="new 0 0 42 24" xml:space="preserve">
<path fill="#FFFFFF" d="M30.79,6.528c-3.083,0-6.233-0.622-10.35-1.865C16.008,3.324,8.473,2.752,2.406,4.657
	C1.45,4.959,0.415,4.473,0.095,3.575c-0.32-0.898,0.196-1.869,1.152-2.169C8.134-0.757,16.411-0.155,21.559,1.4
	c7.508,2.268,11.045,2.27,18.018,0.011c0.953-0.31,1.993,0.167,2.322,1.061c0.329,0.895-0.177,1.87-1.131,2.179
	C36.906,5.903,33.882,6.528,30.79,6.528z M40.769,13.388c0.954-0.309,1.46-1.285,1.131-2.179c-0.329-0.895-1.369-1.37-2.322-1.061
	c-6.973,2.258-10.51,2.256-18.018-0.011C16.411,8.581,8.134,7.98,1.247,10.142c-0.956,0.3-1.472,1.271-1.152,2.169
	c0.32,0.898,1.355,1.384,2.311,1.081c6.067-1.905,13.602-1.332,18.034,0.006c4.117,1.243,7.267,1.865,10.35,1.865
	C33.882,15.264,36.906,14.639,40.769,13.388z M40.769,22.124c0.954-0.309,1.46-1.285,1.131-2.179
	c-0.329-0.895-1.369-1.37-2.322-1.061c-6.973,2.258-10.51,2.256-18.018-0.011c-5.149-1.555-13.426-2.156-20.313,0.006
	c-0.956,0.3-1.472,1.271-1.152,2.169c0.32,0.898,1.355,1.383,2.311,1.081c6.067-1.905,13.602-1.332,18.034,0.006
	C24.557,23.378,27.707,24,30.79,24C33.882,24,36.906,23.375,40.769,22.124z"/>
</svg>
