<?xml version="1.0" encoding="utf-8"?>
<!-- Generator: Adobe Illustrator 17.0.0, SVG Export Plug-In . SVG Version: 6.00 Build 0)  -->
<!DOCTYPE svg PUBLIC "-//W3C//DTD SVG 1.1//EN" "http://www.w3.org/Graphics/SVG/1.1/DTD/svg11.dtd">
<svg version="1.1" id="图层_1" xmlns="http://www.w3.org/2000/svg" xmlns:xlink="http://www.w3.org/1999/xlink" x="0px" y="0px"
	 width="21px" height="56px" viewBox="0 0 21 56" enable-background="new 0 0 21 56" xml:space="preserve">
<path fill="#FFFFFF" d="M15.396,25.265c-1.542,0-3.116-0.311-5.175-0.932c-2.216-0.67-5.984-0.956-9.017-0.003
	c-0.478,0.151-0.996-0.092-1.156-0.541s0.098-0.935,0.576-1.085c3.444-1.082,7.582-0.781,10.156-0.003
	c3.754,1.134,5.523,1.135,9.009,0.005c0.477-0.155,0.996,0.083,1.161,0.53c0.164,0.448-0.089,0.935-0.566,1.09
	C18.454,24.953,16.942,25.265,15.396,25.265z M20.385,28.695c0.477-0.155,0.73-0.642,0.565-1.09
	c-0.164-0.447-0.684-0.685-1.161-0.53c-3.487,1.129-5.255,1.128-9.009-0.005c-2.575-0.778-6.713-1.079-10.157,0.003
	c-0.478,0.15-0.736,0.635-0.576,1.084s0.677,0.692,1.156,0.541c3.033-0.953,6.801-0.666,9.017,0.003
	c2.059,0.621,3.633,0.932,5.175,0.932C16.942,29.633,18.454,29.32,20.385,28.695z M20.385,33.063c0.477-0.155,0.73-0.643,0.565-1.09
	c-0.164-0.448-0.684-0.685-1.161-0.531c-3.487,1.129-5.255,1.128-9.009-0.005C8.206,30.66,4.067,30.359,0.624,31.44
	c-0.478,0.15-0.736,0.635-0.576,1.084c0.16,0.449,0.677,0.692,1.156,0.541c3.033-0.953,6.801-0.666,9.017,0.003
	C12.28,33.689,13.854,34,15.396,34C16.942,34.001,18.454,33.689,20.385,33.063z"/>
</svg>
