<?xml version="1.0" encoding="utf-8"?>
<!-- Generator: Adobe Illustrator 17.0.0, SVG Export Plug-In . SVG Version: 6.00 Build 0)  -->
<!DOCTYPE svg PUBLIC "-//W3C//DTD SVG 1.1//EN" "http://www.w3.org/Graphics/SVG/1.1/DTD/svg11.dtd">
<svg version="1.1" id="图层_1" xmlns="http://www.w3.org/2000/svg" xmlns:xlink="http://www.w3.org/1999/xlink" x="0px" y="0px"
	 width="36px" height="36px" viewBox="0 0 36 36" enable-background="new 0 0 36 36" xml:space="preserve">
<path fill="#aaaaaa" d="M25.333,22h-2.966C24.613,19.664,26,16.496,26,13c0-7.18-5.82-13-13-13S0,5.82,0,13s5.82,13,13,13
	c3.496,0,6.664-1.387,9-3.633v2.966L32.667,36L36,32.667L25.333,22z M13,22c-4.971,0-9-4.029-9-9c0-4.971,4.029-9,9-9s9,4.029,9,9
	C22,17.971,17.971,22,13,22z"/>
</svg>
