<?xml version="1.0" encoding="utf-8"?>
<!-- Generator: Adobe Illustrator 17.0.0, SVG Export Plug-In . SVG Version: 6.00 Build 0)  -->
<!DOCTYPE svg PUBLIC "-//W3C//DTD SVG 1.1//EN" "http://www.w3.org/Graphics/SVG/1.1/DTD/svg11.dtd">
<svg version="1.1" id="图层_1" xmlns="http://www.w3.org/2000/svg" xmlns:xlink="http://www.w3.org/1999/xlink" x="0px" y="0px"
	 width="56px" height="56px" viewBox="0 0 56 56" enable-background="new 0 0 56 56" xml:space="preserve">
<path fill="#FFFFFF" d="M31.666,30h-1.483C31.306,28.832,32,27.248,32,25.5c0-3.59-2.91-6.5-6.5-6.5S19,21.91,19,25.5
	s2.91,6.5,6.5,6.5c1.748,0,3.332-0.693,4.5-1.816v1.483L35.333,37L37,35.333L31.666,30z M25.5,30c-2.486,0-4.5-2.014-4.5-4.5
	s2.014-4.5,4.5-4.5s4.5,2.014,4.5,4.5S27.985,30,25.5,30z"/>
</svg>
