<?xml version="1.0" encoding="utf-8"?>
<!-- Generator: Adobe Illustrator 17.0.0, SVG Export Plug-In . SVG Version: 6.00 Build 0)  -->
<!DOCTYPE svg PUBLIC "-//W3C//DTD SVG 1.1//EN" "http://www.w3.org/Graphics/SVG/1.1/DTD/svg11.dtd">
<svg version="1.1" id="图层_1" xmlns="http://www.w3.org/2000/svg" xmlns:xlink="http://www.w3.org/1999/xlink" x="0px" y="0px"
	 width="36px" height="36px" viewBox="0 0 36 36" enable-background="new 0 0 36 36" xml:space="preserve">
<path fill="#FFFFFF" d="M30,24c-1.943,0-3.666,0.928-4.763,2.361l-13.467-6.733C11.917,19.109,12,18.565,12,18
	s-0.083-1.109-0.229-1.627l13.467-6.733C26.334,11.072,28.057,12,30,12c3.314,0,6-2.686,6-6s-2.686-6-6-6s-6,2.686-6,6
	c0,0.565,0.083,1.109,0.229,1.627l-13.467,6.733C9.666,12.928,7.943,12,6,12c-3.314,0-6,2.686-6,6s2.686,6,6,6
	c1.943,0,3.666-0.928,4.763-2.361l13.467,6.733C24.083,28.891,24,29.435,24,30c0,3.314,2.686,6,6,6s6-2.686,6-6S33.314,24,30,24z"/>
</svg>
