<?xml version="1.0" encoding="utf-8"?>
<!-- Generator: Adobe Illustrator 17.0.0, SVG Export Plug-In . SVG Version: 6.00 Build 0)  -->
<!DOCTYPE svg PUBLIC "-//W3C//DTD SVG 1.1//EN" "http://www.w3.org/Graphics/SVG/1.1/DTD/svg11.dtd">
<svg version="1.1" id="图层_1" xmlns="http://www.w3.org/2000/svg" xmlns:xlink="http://www.w3.org/1999/xlink" x="0px" y="0px"
	 width="300px" height="450px" viewBox="0 0 300 450" enable-background="new 0 0 300 450" xml:space="preserve">
<rect fill="#EEEEEE" width="300" height="450"/>
<path opacity="0.5" fill="#10C6DC" d="M139.128,222.848l-0.598-7.749c-1.787-16.095,3.577-33.681,18.482-51.564
	c13.413-15.798,20.863-27.421,20.863-40.834c0-15.201-9.536-25.335-28.317-25.633c-10.728,0-22.653,3.575-30.103,9.239L112.3,87.53
	c9.839-7.155,26.829-11.923,42.623-11.923c34.279,0,49.778,21.162,49.778,43.815c0,20.268-11.327,34.873-25.633,51.861
	c-13.113,15.5-17.883,28.614-16.99,43.815l0.299,7.749L139.128,222.848L139.128,222.848z M132.568,264.577
	c0-11.028,7.454-18.777,17.883-18.777c10.433,0,17.588,7.749,17.588,18.777c0,10.431-6.856,18.48-17.883,18.48
	C139.723,283.057,132.568,275.008,132.568,264.577z"/>
<path fill="#1767A3" d="M430.208,347.07c-17.556,0-33.846,20.253-51.56,20.253c-17.714,0-34.004-20.253-51.56-20.253
	s-33.846,20.253-51.56,20.253c-17.714,0-34.004-20.253-51.56-20.253s-33.846,20.253-51.56,20.253s-34.004-20.253-51.56-20.253
	s-33.846,20.253-51.56,20.253S35.286,347.07,17.73,347.07s-33.846,20.253-51.56,20.253s-34.004-20.253-51.56-20.253v155.938h515.597
	V347.07z"/>
<path opacity="0.5" fill="#10C6DC" d="M401.289,319.153c-17.556,0-33.846,20.253-51.56,20.253c-17.714,0-34.004-20.253-51.56-20.253
	s-33.846,20.253-51.56,20.253s-34.004-20.253-51.56-20.253s-33.846,20.253-51.56,20.253s-34.004-20.253-51.56-20.253
	s-33.846,20.253-51.56,20.253s-34.004-20.253-51.56-20.253s-33.846,20.253-51.56,20.253s-34.004-20.253-51.56-20.253v183.855
	h515.597V319.153z"/>
<path opacity="0.5" fill="#10C6DC" d="M445.218,324.778c-17.556,0-33.846,20.253-51.56,20.253c-17.714,0-34.004-20.253-51.56-20.253
	s-33.846,20.253-51.56,20.253c-17.714,0-34.004-20.253-51.56-20.253s-33.846,20.253-51.56,20.253s-34.004-20.253-51.56-20.253
	s-33.846,20.253-51.56,20.253s-34.004-20.253-51.56-20.253s-33.846,20.253-51.56,20.253s-34.004-20.253-51.56-20.253v178.23h515.597
	V324.778z"/>
<rect x="-0.5" y="306.5" fill="none" width="300" height="150"/>
</svg>
