<?xml version="1.0" encoding="utf-8"?>
<!-- Generator: Adobe Illustrator 17.0.0, SVG Export Plug-In . SVG Version: 6.00 Build 0)  -->
<!DOCTYPE svg PUBLIC "-//W3C//DTD SVG 1.1//EN" "http://www.w3.org/Graphics/SVG/1.1/DTD/svg11.dtd">
<svg version="1.1" id="图层_1" xmlns="http://www.w3.org/2000/svg" xmlns:xlink="http://www.w3.org/1999/xlink" x="0px" y="0px"
	 width="130px" height="40px" viewBox="0 0 130 40" enable-background="new 0 0 130 40" xml:space="preserve">
<g>
	<path fill="#FFFFFF" d="M53.489,24.33h-2.475v1.165c0,0.259-0.052,0.431-0.152,0.518c-0.099,0.086-0.412,0.252-0.937,0.496
		c-0.528,0.245-1.19,0.453-1.987,0.624c-0.228,0-0.342-0.113-0.342-0.344l0.086-2.546c0.027-0.745,0.041-1.697,0.041-2.845v-5.24
		c0-1.208-0.041-2.43-0.127-3.668c1.479,0.49,2.789,0.899,3.929,1.475h2.263V8.85h-5.125c-0.769,0-1.367,0.087-1.793,0.259
		l-1.11-1.983c0.596,0.144,1.309,0.214,2.134,0.214h5.894V4.145c0-1.438-0.027-3.024-0.084-4.145
		c3.415,0.776,5.123,1.453,5.123,2.027c0,0.287-0.542,0.619-1.622,0.992v4.32h3.245l1.153-1.553c0.313-0.43,0.597-0.645,0.853-0.645
		c0.258,0,0.856,0.473,1.795,1.424c0.94,0.948,1.409,1.567,1.409,1.854c0,0.288-0.27,0.431-0.812,0.431h-7.644v5.117h3.221l0.853-1
		c0.228-0.317,0.443-0.474,0.642-0.474c0.199,0,0.846,0.374,1.942,1.12c1.096,0.75,1.644,1.247,1.644,1.49
		c0,0.245-0.456,0.64-1.367,1.186v3.558c0,1.293,0.023,2.35,0.064,3.17c0.042,0.819,0.065,1.308,0.065,1.467
		c0,0.158-0.129,0.315-0.385,0.474c-0.257,0.158-0.763,0.382-1.516,0.668c-0.756,0.288-1.232,0.431-1.432,0.431
		c-0.199,0-0.298-0.23-0.298-0.691V24.33h-3.604v5.368h3.16l1.194-1.553c0.313-0.432,0.592-0.647,0.833-0.647
		c0.243,0,0.862,0.474,1.858,1.423c0.996,0.949,1.494,1.568,1.494,1.854c0,0.288-0.299,0.431-0.896,0.431h-7.644v6.797
		c0,0.287-0.037,0.46-0.108,0.517c-0.071,0.058-0.372,0.209-0.897,0.454c-0.528,0.243-1.055,0.453-1.581,0.625
		c-0.528,0.172-0.848,0.257-0.962,0.257c-0.113,0-0.169-0.128-0.169-0.387l0.084-2.027c0.058-1.38,0.085-2.66,0.085-3.838v-2.399
		H46.7c-0.768,0-1.367,0.088-1.792,0.26l-0.77-1.985c0.599,0.145,1.308,0.217,2.135,0.217h7.216V24.33z M51.014,18.433h9.625v-3.008
		h-9.625V18.433z M60.64,19.769h-9.625v3.094h9.625V19.769z M73.185,3.929h4.656l0.939-1.38c0.284-0.432,0.562-0.647,0.832-0.647
		c0.27,0,1.018,0.438,2.241,1.315c1.224,0.879,1.837,1.446,1.837,1.704c0,0.258-0.556,0.677-1.665,1.251v28.856
		c0,1.063-0.128,1.861-0.384,2.393c-0.257,0.533-0.849,1.1-1.773,1.704C78.943,39.73,78.331,40,78.033,40
		c-0.3,0-0.52-0.185-0.664-0.617c-0.312-0.977-0.818-1.717-1.516-2.22c-0.698-0.504-2.056-1.129-4.078-1.876l0.17-0.993
		c2.308,0.488,3.802,0.734,4.485,0.734c0.683,0,1.16-0.072,1.431-0.216c0.27-0.144,0.406-0.473,0.406-0.991V24.48h-6.15
		c-0.673,3.943-1.252,5.739-2.988,8.197c-1.739,2.458-4.599,4.728-8.585,7.172l-0.47-0.636c3.047-2.791,5.096-5.083,6.151-6.881
		c1.052-1.796,1.756-3.969,2.113-6.512c0.355-2.545,0.576-5.521,0.663-8.928c0.085-3.409,0.112-8.404,0.085-14.99
		C70.65,2.536,72.017,3.21,73.185,3.929z M78.267,15.235h-5.766l-0.298,7.69h6.064V15.235z M72.545,13.724h5.722V5.439h-5.551
		C72.658,8.66,72.602,12.114,72.545,13.724z M53.489,24.33h-2.475v1.165c0,0.259-0.052,0.431-0.152,0.518
		c-0.099,0.086-0.412,0.252-0.937,0.496c-0.528,0.245-1.19,0.453-1.987,0.624c-0.228,0-0.342-0.113-0.342-0.344l0.086-2.546
		c0.027-0.745,0.041-1.697,0.041-2.845v-5.24c0-1.208-0.041-2.43-0.127-3.668c1.479,0.49,2.789,0.899,3.929,1.475h2.263V8.85h-5.125
		c-0.769,0-1.367,0.087-1.793,0.259l-1.11-1.983c0.596,0.144,1.309,0.214,2.134,0.214h5.894V4.145c0-1.438-0.027-3.024-0.084-4.145
		c3.415,0.776,5.123,1.453,5.123,2.027c0,0.287-0.542,0.619-1.622,0.992v4.32h3.245l1.153-1.553c0.313-0.43,0.597-0.645,0.853-0.645
		c0.258,0,0.856,0.473,1.795,1.424c0.94,0.948,1.409,1.567,1.409,1.854c0,0.288-0.27,0.431-0.812,0.431h-7.644v5.117h3.221l0.853-1
		c0.228-0.317,0.443-0.474,0.642-0.474c0.199,0,0.846,0.374,1.942,1.12c1.096,0.75,1.644,1.247,1.644,1.49
		c0,0.245-0.456,0.64-1.367,1.186v3.558c0,1.293,0.023,2.35,0.064,3.17c0.042,0.819,0.065,1.308,0.065,1.467
		c0,0.158-0.129,0.315-0.385,0.474c-0.257,0.158-0.763,0.382-1.516,0.668c-0.756,0.288-1.232,0.431-1.432,0.431
		c-0.199,0-0.298-0.23-0.298-0.691V24.33h-3.604v5.368h3.16l1.194-1.553c0.313-0.432,0.592-0.647,0.833-0.647
		c0.243,0,0.862,0.474,1.858,1.423c0.996,0.949,1.494,1.568,1.494,1.854c0,0.288-0.299,0.431-0.896,0.431h-7.644v6.797
		c0,0.287-0.037,0.46-0.108,0.517c-0.071,0.058-0.372,0.209-0.897,0.454c-0.528,0.243-1.055,0.453-1.581,0.625
		c-0.528,0.172-0.848,0.257-0.962,0.257c-0.113,0-0.169-0.128-0.169-0.387l0.084-2.027c0.058-1.38,0.085-2.66,0.085-3.838v-2.399
		H46.7c-0.768,0-1.367,0.088-1.792,0.26l-0.77-1.985c0.599,0.145,1.308,0.217,2.135,0.217h7.216V24.33z M51.014,18.433h9.625v-3.008
		h-9.625V18.433z M60.64,19.769h-9.625v3.094h9.625V19.769z M73.185,3.929h4.656l0.939-1.38c0.284-0.432,0.562-0.647,0.832-0.647
		c0.27,0,1.018,0.438,2.241,1.315c1.224,0.879,1.837,1.446,1.837,1.704c0,0.258-0.556,0.677-1.665,1.251v28.856
		c0,1.063-0.128,1.861-0.384,2.393c-0.257,0.533-0.849,1.1-1.773,1.704C78.943,39.73,78.331,40,78.033,40
		c-0.3,0-0.52-0.185-0.664-0.617c-0.312-0.977-0.818-1.717-1.516-2.22c-0.698-0.504-2.056-1.129-4.078-1.876l0.17-0.993
		c2.308,0.488,3.802,0.734,4.485,0.734c0.683,0,1.16-0.072,1.431-0.216c0.27-0.144,0.406-0.473,0.406-0.991V24.48h-6.15
		c-0.673,3.943-1.252,5.739-2.988,8.197c-1.739,2.458-4.599,4.728-8.585,7.172l-0.47-0.636c3.047-2.791,5.096-5.083,6.151-6.881
		c1.052-1.796,1.756-3.969,2.113-6.512c0.355-2.545,0.576-5.521,0.663-8.928c0.085-3.409,0.112-8.404,0.085-14.99
		C70.65,2.536,72.017,3.21,73.185,3.929z M78.267,15.235h-5.766l-0.298,7.69h6.064V15.235z M72.545,13.724h5.722V5.439h-5.551
		C72.658,8.66,72.602,12.114,72.545,13.724z M21.03,12.027v22.762c0,1.593-0.272,2.687-0.812,3.281
		c-0.54,0.593-1.387,0.807-2.542,1.257C16.525,39.774,15.785,40,15.457,40c-0.328,0-0.533-0.188-0.619-0.565
		c-0.284-1.188-0.754-1.734-1.409-2.255c-0.655-0.521-2.035-1.144-4.142-1.868l0.171-0.913c2.505,0.491,4.255,0.738,5.252,0.738
		c0.997,0,1.616-0.152,1.858-0.457c0.241-0.303,0.362-0.802,0.362-1.498V3.989c0-2.489-0.029-3.41-0.086-3.989
		c3.843,1.043,5.765,1.796,5.765,2.259c0,0.232-0.527,0.652-1.579,1.26v2.294c0.824,3.998,1.922,7.473,3.288,10.426
		c3.645-3.764,5.672-8.236,7.295-10.581c0.711,0.55,1.48,1.251,2.306,2.106c0.824,0.854,1.331,1.405,1.516,1.651
		c0.185,0.247,0.277,0.457,0.277,0.63c0,0.32-0.285,0.421-0.855,0.305c-0.227-0.03-0.426-0.044-0.596-0.044
		c-0.569,0-0.341-0.337-1.252,0.33c-1.936,1.449-4.876,5.141-8.092,6.907c3.187,6.458,8.227,11.034,15.117,13.727l-0.173,1.043
		c-0.683-0.086-1.323-0.129-1.92-0.129c-0.598,0-1.139,0.16-1.623,0.478c-0.485,0.32-0.968,0.883-1.453,1.695
		c-0.142,0.231-0.313,0.345-0.512,0.345c-0.655,0-2.598-1.823-5.829-5.472C25.292,25.58,22.794,19.847,21.03,12.027z M2.197,14.115
		c-0.857,0-1.589-0.069-2.197-0.211l0.705,1.73c0.359-0.169,0.883-0.253,1.574-0.253h8.004C9.48,20.555,8.325,24.606,6.82,27.528
		c-1.506,2.926-3.738,5.54-6.695,7.846l0.372,0.802c2.929-1.801,5.094-3.347,6.488-4.639c1.396-1.295,2.558-2.897,3.485-4.81
		c0.925-1.911,1.969-4.794,3.128-8.646c0.416-1.378,0.832-2.136,1.246-2.277c0.607-0.227,0.912-0.48,0.912-0.759
		c0-0.282-0.202-0.584-0.602-0.908s-0.988-0.759-1.763-1.307c-0.773-0.548-1.256-0.823-1.45-0.823c-0.193,0-0.373,0.1-0.539,0.296
		l-1.535,1.814H2.197z M21.03,12.027v22.762c0,1.593-0.272,2.687-0.812,3.281c-0.54,0.593-1.387,0.807-2.542,1.257
		C16.525,39.774,15.785,40,15.457,40c-0.328,0-0.533-0.188-0.619-0.565c-0.284-1.188-0.754-1.734-1.409-2.255
		c-0.655-0.521-2.035-1.144-4.142-1.868l0.171-0.913c2.505,0.491,4.255,0.738,5.252,0.738c0.997,0,1.616-0.152,1.858-0.457
		c0.241-0.303,0.362-0.802,0.362-1.498V3.989c0-2.489-0.029-3.41-0.086-3.989c3.843,1.043,5.765,1.796,5.765,2.259
		c0,0.232-0.527,0.652-1.579,1.26v2.294c0.824,3.998,1.922,7.473,3.288,10.426c3.645-3.764,5.672-8.236,7.295-10.581
		c0.711,0.55,1.48,1.251,2.306,2.106c0.824,0.854,1.331,1.405,1.516,1.651c0.185,0.247,0.277,0.457,0.277,0.63
		c0,0.32-0.285,0.421-0.855,0.305c-0.227-0.03-0.426-0.044-0.596-0.044c-0.569,0-0.341-0.337-1.252,0.33
		c-1.936,1.449-4.876,5.141-8.092,6.907c3.187,6.458,8.227,11.034,15.117,13.727l-0.173,1.043c-0.683-0.086-1.323-0.129-1.92-0.129
		c-0.598,0-1.139,0.16-1.623,0.478c-0.485,0.32-0.968,0.883-1.453,1.695c-0.142,0.231-0.313,0.345-0.512,0.345
		c-0.655,0-2.598-1.823-5.829-5.472C25.292,25.58,22.794,19.847,21.03,12.027z M2.197,14.115c-0.857,0-1.589-0.069-2.197-0.211
		l0.705,1.73c0.359-0.169,0.883-0.253,1.574-0.253h8.004C9.48,20.555,8.325,24.606,6.82,27.528c-1.506,2.926-3.738,5.54-6.695,7.846
		l0.372,0.802c2.929-1.801,5.094-3.347,6.488-4.639c1.396-1.295,2.558-2.897,3.485-4.81c0.925-1.911,1.969-4.794,3.128-8.646
		c0.416-1.378,0.832-2.136,1.246-2.277c0.607-0.227,0.912-0.48,0.912-0.759c0-0.282-0.202-0.584-0.602-0.908
		s-0.988-0.759-1.763-1.307c-0.773-0.548-1.256-0.823-1.45-0.823c-0.193,0-0.373,0.1-0.539,0.296l-1.535,1.814H2.197z
		 M113.254,25.026c-0.595-0.35-0.764-0.455-1.423-0.438c-0.461,0.011-0.846-0.092-1.169-0.264c-0.79,0.921-1.603,1.808-2.47,2.616
		c-4.484,4.18-10.664,9.182-19.204,12.197L89.329,40c6.719-1.724,11.71-5.038,15.637-7.136c3.715-1.981,6.764-4.386,9.168-7.202
		C113.873,25.438,113.62,25.241,113.254,25.026z M113.254,25.026c-0.595-0.35-0.764-0.455-1.423-0.438
		c-0.461,0.011-0.846-0.092-1.169-0.264c-0.79,0.921-1.603,1.808-2.47,2.616c-4.484,4.18-10.664,9.182-19.204,12.197L89.329,40
		c6.719-1.724,11.71-5.038,15.637-7.136c3.715-1.981,6.764-4.386,9.168-7.202C113.873,25.438,113.62,25.241,113.254,25.026z
		 M122.925,8.003c-1.438-1.149-2.301-1.724-2.584-1.724c-0.143,0-0.27,0.087-0.385,0.259l-1.532,1.891h-12.897l2.038-3.647
		c0.37-0.63,0.833-1.725,1.639-2.054c0.519-0.21,1.052-0.481,0.884-0.676c-0.484-0.558-3.312-1.95-5.207-2.053
		c-2.79,10.082-7.728,17.411-14.819,23.816l0.684,0.732c4.356-3.16,7.773-6.291,10.25-9.392l0.597-0.82
		c1.11-1.492,2.271-3.017,3.183-4.51h13.963c-0.661,1.943-1.476,3.777-2.328,5.505c0.981,0.949,1.834,2.015,2.604,3.144
		c0.993-1.738,1.989-3.633,2.99-5.732c0.312-0.63,0.584-1.077,0.812-1.335c0.227-0.26,0.661-0.416,1.302-0.473
		c0.64-0.059,0.96-0.274,0.96-0.647C125.08,9.914,124.362,9.151,122.925,8.003z"/>
	<path fill="#FFFFFF" d="M97.522,21.751c0,0,9.08-6.462,13.438-5.466c4.355,0.997,6.529,7.282,8.758,6.116
		c2.227-1.168,4.382-7.228,10.281,1.816c0,0-4.49-2.784-6.266-1.825c-1.776,0.959-4.647,3.945-5.17,3.907
		c-0.524-0.041-3.351-5.981-9.29-5.804C103.336,20.671,97.522,21.751,97.522,21.751z"/>
</g>
</svg>
