<?xml version="1.0" encoding="utf-8"?>
<!-- Generator: Adobe Illustrator 17.0.0, SVG Export Plug-In . SVG Version: 6.00 Build 0)  -->
<!DOCTYPE svg PUBLIC "-//W3C//DTD SVG 1.1//EN" "http://www.w3.org/Graphics/SVG/1.1/DTD/svg11.dtd">
<svg version="1.1" id="图层_1" xmlns="http://www.w3.org/2000/svg" xmlns:xlink="http://www.w3.org/1999/xlink" x="0px" y="0px"
	 width="20px" height="20px" viewBox="0 0 20 20" enable-background="new 0 0 20 20" xml:space="preserve">
<path fill="#FFFFFF" d="M0.783,20c-0.48,0-0.825-0.382-0.779-0.824c0.011-0.104,0.031-0.209,0.061-0.31
	c0.563-1.921,1.129-3.84,1.689-5.761c0.076-0.262,0.199-0.48,0.41-0.66c0.216-0.184,0.407-0.396,0.609-0.596
	c2.563-2.539,5.126-5.077,7.689-7.616c0.191-0.19,0.192-0.189,0.384,0.002c0.225,0.224,0.44,0.458,0.676,0.669
	c0.153,0.137,0.095,0.218-0.02,0.332c-1.727,1.721-3.452,3.444-5.176,5.167c-0.972,0.971-1.943,1.944-2.918,2.912
	c-0.121,0.12-0.204,0.251-0.252,0.416c-0.305,1.053-0.613,2.106-0.928,3.156c-0.048,0.16-0.032,0.273,0.096,0.386
	c0.153,0.135,0.295,0.284,0.435,0.433c0.082,0.087,0.168,0.111,0.284,0.077c1.058-0.313,2.117-0.624,3.176-0.934
	c0.121-0.035,0.204-0.117,0.288-0.201c2.716-2.713,5.432-5.426,8.148-8.139c0.042-0.042,0.086-0.082,0.127-0.126
	c0.074-0.081,0.141-0.076,0.217,0.002c0.307,0.31,0.613,0.62,0.926,0.924c0.119,0.115,0.041,0.18-0.037,0.258
	c-1.009,1-2.018,1.999-3.026,3c-1.805,1.792-3.61,3.584-5.414,5.378c-0.126,0.125-0.273,0.207-0.44,0.256
	c-1.984,0.584-3.968,1.166-5.953,1.747C0.954,19.978,0.848,19.988,0.783,20z M13.795,7.206c-0.359-0.361-0.718-0.72-1.078-1.08
	c-0.197-0.197-0.198-0.197-0.4,0.005c-1.794,1.792-3.589,3.584-5.383,5.376c-0.935,0.933-1.869,1.867-2.802,2.801
	c-0.05,0.05-0.142,0.094-0.124,0.166c0.022,0.087,0.131,0.07,0.204,0.088c0.263,0.063,0.527,0.125,0.792,0.179
	c0.129,0.026,0.192,0.092,0.209,0.223c0.032,0.242,0.075,0.483,0.114,0.724c0.009,0.057,0.001,0.133,0.067,0.153
	c0.066,0.02,0.099-0.053,0.143-0.09c0.03-0.026,0.057-0.055,0.085-0.083c1.906-1.904,3.813-3.808,5.719-5.712
	c0.813-0.812,1.626-1.624,2.438-2.437c0.05-0.05,0.115-0.091,0.124-0.188C13.871,7.294,13.836,7.247,13.795,7.206z M14.774,0.197
	c-0.452,0.232-0.746,0.644-1.11,0.976c-0.117,0.107-0.105,0.184,0.004,0.291c0.378,0.368,0.749,0.745,1.122,1.119
	c1.237,1.237,2.474,2.474,3.712,3.711c0.183,0.183,0.185,0.183,0.371-0.005c0.19-0.192,0.382-0.383,0.568-0.581
	c0.748-0.796,0.75-1.843-0.013-2.623c-0.831-0.849-1.678-1.684-2.52-2.522C16.545,0.202,16.109,0.007,15.594,0
	C15.305,0,15.031,0.065,14.774,0.197z M17.901,7.273c-0.224-0.225-0.448-0.449-0.672-0.673c-1.463-1.462-2.927-2.922-4.385-4.389
	c-0.14-0.14-0.23-0.149-0.371-0.009c-0.29,0.289-0.591,0.567-0.894,0.842c-0.113,0.102-0.122,0.173-0.007,0.286
	c1.704,1.697,3.405,3.398,5.103,5.1c0.101,0.101,0.173,0.111,0.278,0.009c0.314-0.303,0.635-0.598,0.952-0.897
	c0.038-0.036,0.081-0.069,0.093-0.138C17.988,7.354,17.943,7.314,17.901,7.273z"/>
</svg>
