<?xml version="1.0" encoding="utf-8"?>
<!-- Generator: Adobe Illustrator 17.0.0, SVG Export Plug-In . SVG Version: 6.00 Build 0)  -->
<!DOCTYPE svg PUBLIC "-//W3C//DTD SVG 1.1//EN" "http://www.w3.org/Graphics/SVG/1.1/DTD/svg11.dtd">
<svg version="1.1" id="图层_1" xmlns="http://www.w3.org/2000/svg" xmlns:xlink="http://www.w3.org/1999/xlink" x="0px" y="0px"
	 width="21px" height="20px" viewBox="0 0 21 20" enable-background="new 0 0 21 20" xml:space="preserve">
<path fill="#FFFFFF" d="M8.548,7.685V0C3.71,0.733,0,4.896,0,9.937c0,2.588,0.984,4.938,2.589,6.721
	C8.716,12.38,8.548,7.685,8.548,7.685z M11.611,7.572c0.698,5.305,4.298,7.99,5.955,9.049c0.02-0.022,0.043-0.042,0.062-0.064
	c1.55-1.77,2.495-4.082,2.495-6.619c0-2.538-0.945-4.848-2.495-6.618c-1.521-1.739-3.631-2.94-6.017-3.311
	C11.611,0.008,11.611,7.572,11.611,7.572z M9.966,12.736c-0.88,3.144-3.318,5.243-4.535,6.129C6.818,19.585,8.391,20,10.062,20
	c1.739,0,3.366-0.455,4.79-1.233C11.594,16.417,9.966,12.736,9.966,12.736z"/>
</svg>
