<?xml version="1.0" encoding="utf-8"?>
<!-- Generator: Adobe Illustrator 17.0.0, SVG Export Plug-In . SVG Version: 6.00 Build 0)  -->
<!DOCTYPE svg PUBLIC "-//W3C//DTD SVG 1.1//EN" "http://www.w3.org/Graphics/SVG/1.1/DTD/svg11.dtd">
<svg version="1.1" id="图层_1" xmlns="http://www.w3.org/2000/svg" xmlns:xlink="http://www.w3.org/1999/xlink" x="0px" y="0px"
	 width="25px" height="20px" viewBox="0 0 25 20" enable-background="new 0 0 25 20" xml:space="preserve">
<path fill="#FFFFFF" enable-background="new    " d="M18.547,9.629c-0.347-0.104-0.586-0.175-0.404-0.632
	c0.394-0.993,0.435-1.847,0.007-2.458c-0.802-1.147-2.996-1.084-5.51-0.031c0-0.001-0.789,0.346-0.586-0.28
	c0.385-1.243,0.327-2.284-0.274-2.885c-1.363-1.365-4.99,0.052-8.1,3.159C1.352,8.833,0,11.3,0,13.435C0,17.519,5.236,20,10.358,20
	c6.715,0,11.182-3.901,11.182-6.998C21.54,11.131,19.965,10.068,18.547,9.629z M10.372,18.537c-4.087,0.404-7.616-1.444-7.881-4.128
	C2.226,11.726,5.324,9.224,9.413,8.82c4.087-0.405,7.616,1.443,7.881,4.127C17.559,15.63,14.46,18.133,10.372,18.537z M23.007,2.157
	c-1.621-1.797-4.013-2.483-6.221-2.015h-0.001c-0.511,0.11-0.837,0.611-0.727,1.123c0.109,0.51,0.612,0.837,1.122,0.727
	c1.57-0.333,3.27,0.153,4.423,1.431c1.152,1.278,1.465,3.02,0.973,4.547l0,0c-0.162,0.498,0.111,1.03,0.61,1.19
	c0.496,0.16,1.028-0.11,1.189-0.607c0-0.001,0-0.002,0-0.004C25.066,6.401,24.629,3.954,23.007,2.157 M20.516,4.406
	c-0.789-0.877-1.955-1.209-3.031-0.98c-0.439,0.094-0.721,0.526-0.626,0.967c0.094,0.438,0.526,0.721,0.965,0.625v0.001
	c0.526-0.111,1.095,0.051,1.481,0.478c0.386,0.43,0.49,1.012,0.325,1.525h0.001c-0.138,0.426,0.095,0.885,0.525,1.025
	c0.427,0.137,0.885-0.096,1.023-0.525C21.519,6.472,21.307,5.28,20.516,4.406 M10.78,10.884c-1.944-0.505-4.143,0.464-4.987,2.178
	c-0.86,1.748-0.03,3.688,1.937,4.322c2.036,0.657,4.434-0.351,5.268-2.236C13.822,13.303,12.793,11.405,10.78,10.884z M9.296,15.348
	c-0.395,0.631-1.243,0.906-1.88,0.615c-0.63-0.284-0.815-1.017-0.42-1.633c0.39-0.612,1.209-0.885,1.842-0.618
	C9.48,13.984,9.684,14.711,9.296,15.348z M10.597,13.677c-0.143,0.246-0.458,0.362-0.706,0.26c-0.243-0.1-0.319-0.374-0.181-0.614
	c0.142-0.238,0.447-0.356,0.69-0.259C10.644,13.155,10.735,13.431,10.597,13.677z"/>
</svg>
