<?xml version="1.0" encoding="utf-8"?>
<!-- Generator: Adobe Illustrator 17.0.0, SVG Export Plug-In . SVG Version: 6.00 Build 0)  -->
<!DOCTYPE svg PUBLIC "-//W3C//DTD SVG 1.1//EN" "http://www.w3.org/Graphics/SVG/1.1/DTD/svg11.dtd">
<svg version="1.1" id="图层_1" xmlns="http://www.w3.org/2000/svg" xmlns:xlink="http://www.w3.org/1999/xlink" x="0px" y="0px"
	 width="20px" height="20px" viewBox="0 0 20 20" enable-background="new 0 0 20 20" xml:space="preserve">
<path fill="#80868F" d="M18,2.562v2v2v9c0,1.656-1.103,3-2.759,3c-1.656,0-2.759-1.344-2.759-3c0-1.656,1.183-3,2.839-3
	c0.771,0,1.679,0.3,1.679,0.779V7H7v8.561c0,1.656-1.103,3-2.759,3c-1.656,0-2.759-1.344-2.759-3c0-1.656,1.183-3,2.839-3
	c0.771,0,1.679,0.3,1.679,0.779V6.562v-2v-2C6,2.009,6.091,2,6.643,2H17C17.552,2,18,2.009,18,2.562z"/>
</svg>