<?xml version="1.0" encoding="utf-8"?>
<!-- Generator: Adobe Illustrator 17.0.0, SVG Export Plug-In . SVG Version: 6.00 Build 0)  -->
<!DOCTYPE svg PUBLIC "-//W3C//DTD SVG 1.1//EN" "http://www.w3.org/Graphics/SVG/1.1/DTD/svg11.dtd">
<svg version="1.1" id="图层_1" xmlns="http://www.w3.org/2000/svg" xmlns:xlink="http://www.w3.org/1999/xlink" x="0px" y="0px"
	 width="16px" height="16px" viewBox="2 2 16 16" enable-background="new 2 2 16 16" xml:space="preserve">
<path fill="#A4A8AF" d="M13.259,11.778h-1.318c0.998-1.038,1.615-2.446,1.615-4C13.556,4.587,10.969,2,7.778,2S2,4.587,2,7.778
	s2.587,5.778,5.778,5.778c1.554,0,2.962-0.617,4-1.615v1.318L16.519,18L18,16.519L13.259,11.778z M7.778,11.778
	c-2.209,0-4-1.791-4-4c0-2.209,1.791-4,4-4s4,1.791,4,4C11.778,9.987,9.987,11.778,7.778,11.778z"/>
</svg>
