<?xml version="1.0" encoding="utf-8"?>
<!-- Generator: Adobe Illustrator 17.0.0, SVG Export Plug-In . SVG Version: 6.00 Build 0)  -->
<!DOCTYPE svg PUBLIC "-//W3C//DTD SVG 1.1//EN" "http://www.w3.org/Graphics/SVG/1.1/DTD/svg11.dtd">
<svg version="1.1" id="图层_1" xmlns="http://www.w3.org/2000/svg" xmlns:xlink="http://www.w3.org/1999/xlink" x="0px" y="0px"
	 width="186px" height="20px" viewBox="0 0 186 20" enable-background="new 0 0 186 20" xml:space="preserve">
<g>
	<path fill="#666666" d="M51,19c0,0-1-2-4-2s-4,1-4,1V3c0,0,1.75-2,4-2s4,2,4,2V19z"/>
	<path fill="#666666" d="M60,18c0,0-1.875-1-4-1s-4,2-4,2V3c0,0,2.125-2,4-2s4,2,4,2V18z"/>
</g>
<path fill="#666666" d="M99.796,11.553L104,10l-4.204-1.553L102.66,5l-4.418,0.757L99,1.34l-3.447,2.864L94-0.001l-1.553,4.204
	L89,1.34l0.757,4.417L85.34,5l2.865,3.447L84,10l4.205,1.553l-2.865,3.447l4.417-0.757L89,18.659l3.447-2.865L94,20l1.553-4.205
	L99,18.659l-0.758-4.417l4.418,0.757L99.796,11.553z M94,14.999c-2.761,0-5-2.239-5-5s2.239-5,5-5s5,2.239,5,5
	S96.761,14.999,94,14.999z"/>
<g>
	<path fill="#666666" d="M114,5.866c0,2.533,0,3.8,0,6.333v0V19h1v-6.381c3.162,0.963,5-2.351,8-0.42c0-2.533,0-3.8,0-6.333
		C120,3.739,118,7.993,114,5.866z"/>
	<path fill="#666666" d="M116.19,5.479c0.734,0,1.452-0.268,2.211-0.551c0.193-0.072,0.394-0.146,0.599-0.218
		c0-0.81,0-1.673,0-2.711c-4.799-2.688-7.199,2.688-12,0c0,1.6,0,2.8,0,4v4v9h1v-8.548c1.917,0.688,3,0.115,5-0.458V5.866
		c0-0.355,0.188-0.683,0.494-0.863c0.156-0.091,0.331-0.137,0.505-0.137c0.169,0,0.336,0.043,0.488,0.128
		C115.073,5.32,115.63,5.479,116.19,5.479z"/>
</g>
<g>
	<path fill="#666666" d="M165.468,3.208l-1.853-1.853c-0.512-0.512-1.341-0.512-1.853,0L160.117,3H149.5c-0.827,0-1.5,0.673-1.5,1.5
		v13c0,0.827,0.673,1.5,1.5,1.5h13c0.827,0,1.5-0.673,1.5-1.5V6.528l1.468-1.468C165.98,4.549,165.98,3.72,165.468,3.208z M163,17.5
		c0,0.276-0.224,0.5-0.5,0.5h-13c-0.276,0-0.5-0.224-0.5-0.5v-13c0-0.276,0.224-0.5,0.5-0.5h9.617l-6.333,6.333
		c0.884,0.179,1.728,0.607,2.413,1.293c0.685,0.685,1.114,1.53,1.293,2.413L163,7.528V17.5z"/>
	<path fill="#666666" d="M151.902,11.349c-0.023,0-0.103,0.005-0.126,0.009c-0.182,0.027-0.331,0.161-0.378,0.339l-0.934,3.557
		c-0.042,0.159,0.004,0.328,0.121,0.444c0.087,0.088,0.205,0.136,0.327,0.136c0.04,0,0.079-0.005,0.118-0.016l3.557-0.934
		c0.2-0.052,0.341-0.231,0.345-0.438c0.002-0.098-0.014-0.985-1.105-2.076C152.904,11.449,152.173,11.349,151.902,11.349z"/>
</g>
<path fill="#666666" d="M139,1h-10v18h14V5L139,1z M140,15h-8v-2h3V7.764L132.782,9.5L132,7.5l3-2.5h2v8h3V15z"/>
<path fill="#666666" d="M175,1h-3c-1.656,0-3,1.343-3,3v12c0,1.657,1.344,3,3,3h11c1.656,0,3-1.343,3-3v-4L175,1z M179,11
	c-1.656,0-3-1.343-3-3V3l8,8H179z"/>
<g>
	<path fill="#666666" d="M12.362,7.756l-2.36-7.266L7.639,7.756H0l6.181,4.491l-2.36,7.264c0,0,2.862-2.079,6.181-4.487l6.179,4.487
		l-2.36-7.264C17.138,9.836,20,7.756,20,7.756H12.362z"/>
	<polygon fill="#666666" points="0,7.756 0,7.756 0,7.756 	"/>
</g>
<path fill="#666666" d="M38,1h-1v2h-2V1h-9v2h-2V1h-1c-0.552,0-1,0.448-1,1v16c0,0.552,0.448,1,1,1h1v-2h2v2h9v-2h2v2h1
	c0.552,0,1-0.448,1-1V2C39,1.448,38.552,1,38,1z M26,15h-2v-2h2V15z M26,11h-2V9h2V11z M26,7h-2V5h2V7z M37,15h-2v-2h2V15z M37,11
	h-2V9h2V11z M37,7h-2V5h2V7z"/>
<path fill="#666666" d="M80,2H70c-0.552,0-1,0.448-1,1v2v2v6.779C68.468,13.3,67.771,13,67,13c-1.656,0-3,1.344-3,3
	c0,1.656,1.344,3,3,3c1.656,0,3-1.344,3-3V7h10v6.779C79.468,13.3,78.771,13,78,13c-1.656,0-3,1.344-3,3c0,1.656,1.344,3,3,3
	c1.656,0,3-1.344,3-3V7V5V3C81,2.448,80.552,2,80,2z"/>
</svg>
