<?xml version="1.0" encoding="utf-8"?>
<!-- Generator: Adobe Illustrator 18.0.0, SVG Export Plug-In . SVG Version: 6.00 Build 0)  -->
<!DOCTYPE svg PUBLIC "-//W3C//DTD SVG 1.1//EN" "http://www.w3.org/Graphics/SVG/1.1/DTD/svg11.dtd">
<svg version="1.1" id="图层_1" xmlns="http://www.w3.org/2000/svg" xmlns:xlink="http://www.w3.org/1999/xlink" x="0px" y="0px"
	 viewBox="0 0 96 96" enable-background="new 0 0 96 96" xml:space="preserve">
<path fill="#80868F" d="M88,48.1C88,25.8,70.3,7.7,47.8,7.7l0,0C26.1,7.7,8,25.8,8,48c0,0-0.1,11.6,4.3,29.5
	c0.3,1.1,1.3,2.5,2.5,2.5h2.5l1.4,6.7c0.3,1.5,1.6,1.3,3.1,1.3h10.4c3.6,0,6.3-2.5,5.7-6.1l-4.5-24.3c-0.6-3.3-4-5-7.1-3.8L16,57.9
	c-1.1,0.4-1.8,1.6-1.8,2.7c-0.7-4.5-1.3-9-1.5-11.2c-0.1-0.6,0.4-1.4,1.1-1.4h5.3c1.3,0,2.4-0.7,2.5-2c1.1-13.8,12.6-24.6,26.6-24.6
	c14,0,25.4,10.8,26.6,24.5c0.1,1.3,1.2,2.1,2.5,2.1h5.3c0.6,0,1.1,0.8,1.1,1.4c-0.2,2.3-0.8,6.6-1.5,11.1c0-1.2-0.7-2.2-1.8-2.6
	l-10.2-4c-3.1-1.2-6.5,0.7-7.1,4l-4.5,24c-0.7,3.6,2.1,6.1,5.7,6.1h10.4c1.5,0,2.8,0.2,3.1-1.3L79,80h2.5c1.1,0,2-1.4,2.3-2.5
	C88.3,59.6,88,48.1,88,48.1z"/>
</svg>
