<?xml version="1.0" encoding="utf-8"?>
<!-- Generator: Adobe Illustrator 18.0.0, SVG Export Plug-In . SVG Version: 6.00 Build 0)  -->
<!DOCTYPE svg PUBLIC "-//W3C//DTD SVG 1.1//EN" "http://www.w3.org/Graphics/SVG/1.1/DTD/svg11.dtd">
<svg version="1.1" id="图层_1" xmlns="http://www.w3.org/2000/svg" xmlns:xlink="http://www.w3.org/1999/xlink" x="0px" y="0px"
	 viewBox="0 0 96 96" enable-background="new 0 0 96 96" xml:space="preserve">
<path fill="#80868F" d="M48,8C25.9,8,8,25.9,8,48s17.9,40,40,40c3.7,0,6.7-3,6.7-6.7c0-1.7-0.7-3.3-1.7-4.5c-1-1.2-1.7-2.7-1.7-4.4
	c0-3.7,3-6.7,6.7-6.7h7.9C78,65.8,88,55.8,88,43.6C88,23.9,70.1,8,48,8z M23.6,48c-3.7,0-6.7-3-6.7-6.7s3-6.7,6.7-6.7s6.7,3,6.7,6.7
	S27.2,48,23.6,48z M36.9,30.2c-3.7,0-6.7-3-6.7-6.7s3-6.7,6.7-6.7s6.7,3,6.7,6.7S40.6,30.2,36.9,30.2z M59.1,30.2
	c-3.7,0-6.7-3-6.7-6.7s3-6.7,6.7-6.7s6.7,3,6.7,6.7S62.8,30.2,59.1,30.2z M72.4,48c-3.7,0-6.7-3-6.7-6.7s3-6.7,6.7-6.7
	s6.7,3,6.7,6.7S76.1,48,72.4,48z"/>
</svg>
