<?xml version="1.0" encoding="utf-8"?>
<!-- Generator: Adobe Illustrator 17.0.0, SVG Export Plug-In . SVG Version: 6.00 Build 0)  -->
<!DOCTYPE svg PUBLIC "-//W3C//DTD SVG 1.1//EN" "http://www.w3.org/Graphics/SVG/1.1/DTD/svg11.dtd">
<svg version="1.1" id="图层_1" xmlns="http://www.w3.org/2000/svg" xmlns:xlink="http://www.w3.org/1999/xlink" x="0px" y="0px"
	 width="25px" height="20px" viewBox="0 0 25 20" enable-background="new 0 0 25 20" xml:space="preserve">
<path fill="#CCCCCC" d="M23.237,15.773c0,0-2.481,5.533-9.256,3.938C7.207,18.117,7.444,12.76,0,12.681c0,0,1.792-1.573,3.721-1.573
	c1.93,0,3.427,1.238,4.746,2.991c1.319,1.753,3.702,5.022,7.207,4.943c0,0-2.455-0.26-4.766-3.487s-2.088-7.56,0.945-10.671
	s1.022-4.096,1.022-4.096S19.751,4.352,19.869,0c0,0,2.068,7.089,4.766,3.879c0,0,0.158,6.301-3.328,7.365
	c0,0,1.083-0.808,0.629-2.678c-0.453-1.871-2.652-3.118-5.119-2.672c-2.469,0.446-4.873,2.783-4.379,6.485
	c0.493,3.702,4.195,6.144,7.136,5.514C22.515,17.264,23.237,15.773,23.237,15.773z M18.234,14.493
	c1.313-0.289,2.193,0.919,2.311,0.905s0.631-0.801,0.984-1.09C21.884,14.02,23,14.453,23,14.453
	c-1.694-1.773-1.917-0.328-2.363,0.026c-0.446,0.355-1.195-0.958-2.205-0.998c-1.011-0.039-2.757,1.786-2.757,1.786
	S16.922,14.783,18.234,14.493z"/>
</svg>
