<?xml version="1.0" encoding="utf-8"?>
<!-- Generator: Adobe Illustrator 17.0.0, SVG Export Plug-In . SVG Version: 6.00 Build 0)  -->
<!DOCTYPE svg PUBLIC "-//W3C//DTD SVG 1.1//EN" "http://www.w3.org/Graphics/SVG/1.1/DTD/svg11.dtd">
<svg version="1.1" id="图层_1" xmlns="http://www.w3.org/2000/svg" xmlns:xlink="http://www.w3.org/1999/xlink" x="0px" y="0px"
	 width="20px" height="20px" viewBox="0 0 20 20" enable-background="new 0 0 20 20" xml:space="preserve">
<path fill="#80868F" d="M15.024,9.8c-0.281-0.084-0.475-0.142-0.327-0.512c0.319-0.804,0.352-1.496,0.006-1.991
	c-0.65-0.929-2.427-0.878-4.463-0.025c0-0.001-0.639,0.28-0.475-0.227c0.312-1.007,0.265-1.85-0.222-2.337
	C8.439,3.602,5.501,4.75,2.982,7.267C1.095,9.155,0,11.154,0,12.883c0,3.308,4.241,5.318,8.39,5.318c5.439,0,9.058-3.16,9.058-5.669
	C17.448,11.017,16.172,10.156,15.024,9.8z M8.402,17.016c-3.311,0.327-6.169-1.17-6.384-3.344c-0.215-2.173,2.295-4.2,5.607-4.527
	c3.311-0.328,6.169,1.169,6.384,3.343C14.223,14.661,11.713,16.689,8.402,17.016z"/>
<path fill="#80868F" d="M18.636,3.748c-1.313-1.456-3.251-2.011-5.039-1.632h-0.001c-0.414,0.089-0.678,0.495-0.589,0.91
	c0.088,0.413,0.496,0.678,0.909,0.589c1.272-0.27,2.649,0.124,3.583,1.159c0.933,1.035,1.187,2.446,0.788,3.683l0,0
	c-0.131,0.403,0.09,0.834,0.494,0.964c0.402,0.13,0.833-0.089,0.963-0.492c0-0.001,0-0.002,0-0.003
	C20.304,7.185,19.95,5.203,18.636,3.748"/>
<path fill="#80868F" d="M16.619,5.569c-0.639-0.71-1.584-0.979-2.455-0.794c-0.356,0.076-0.584,0.426-0.507,0.783
	c0.076,0.355,0.426,0.584,0.782,0.506v0.001c0.426-0.09,0.887,0.041,1.2,0.387c0.313,0.348,0.397,0.82,0.263,1.235h0.001
	c-0.112,0.345,0.077,0.717,0.425,0.83c0.346,0.111,0.717-0.078,0.829-0.425C17.431,7.243,17.259,6.277,16.619,5.569"/>
<g>
	<g>
		<path fill="#80868F" d="M8.732,10.817c-1.575-0.409-3.356,0.376-4.04,1.764c-0.697,1.416-0.024,2.987,1.569,3.501
			c1.649,0.532,3.592-0.284,4.267-1.811C11.196,12.776,10.363,11.239,8.732,10.817z M7.53,14.433
			c-0.32,0.511-1.007,0.734-1.523,0.498c-0.51-0.23-0.66-0.824-0.34-1.323c0.316-0.496,0.979-0.717,1.492-0.501
			C7.679,13.328,7.844,13.917,7.53,14.433z M8.584,13.079c-0.116,0.199-0.371,0.293-0.572,0.211
			c-0.197-0.081-0.258-0.303-0.147-0.497c0.115-0.193,0.362-0.288,0.559-0.21C8.622,12.656,8.696,12.88,8.584,13.079z"/>
	</g>
</g>
</svg>
