<?xml version="1.0" encoding="utf-8"?>
<!-- Generator: Adobe Illustrator 17.0.0, SVG Export Plug-In . SVG Version: 6.00 Build 0)  -->
<!DOCTYPE svg PUBLIC "-//W3C//DTD SVG 1.1//EN" "http://www.w3.org/Graphics/SVG/1.1/DTD/svg11.dtd">
<svg version="1.1" id="图层_1" xmlns="http://www.w3.org/2000/svg" xmlns:xlink="http://www.w3.org/1999/xlink" x="0px" y="0px"
	 width="24px" height="20px" viewBox="-489.5 510.5 24 20" enable-background="new -489.5 510.5 24 20" xml:space="preserve">
<path fill="#CCCCCC" d="M-465.614,523.495c0-3.41-3.247-6.174-7.253-6.174c-4.006,0-7.253,2.764-7.253,6.174
	c0,3.41,3.247,6.174,7.253,6.174c1.079,0,2.102-0.202,3.022-0.562l-0.011,0.006l2.407,1.386l-0.628-2.368l-0.01,0.005
	C-466.572,527.005-465.614,525.346-465.614,523.495z M-475.384,522.163c-0.536,0-0.971-0.435-0.971-0.971s0.435-0.971,0.971-0.971
	c0.536,0,0.971,0.435,0.971,0.971S-474.848,522.163-475.384,522.163z M-470.126,522.163c-0.536,0-0.971-0.435-0.971-0.971
	s0.435-0.971,0.971-0.971c0.536,0,0.971,0.435,0.971,0.971S-469.59,522.163-470.126,522.163z M-480.726,525.01
	c-0.137-0.502-0.212-1.024-0.212-1.562c0-3.794,3.613-6.87,8.07-6.87c0.103,0,0.206,0.003,0.308,0.007
	c-0.659-3.451-4.174-6.085-8.414-6.085c-4.709,0-8.526,3.25-8.526,7.258c0,2.337,1.299,4.415,3.315,5.743l-0.011-0.005l-0.799,2.878
	l3.152-1.779l-0.005-0.002c0.898,0.274,1.866,0.424,2.875,0.424C-480.891,525.016-480.809,525.013-480.726,525.01z
	 M-477.516,514.253c0.615,0,1.113,0.498,1.113,1.113c0,0.615-0.498,1.113-1.113,1.113s-1.113-0.498-1.113-1.113
	C-478.629,514.751-478.131,514.253-477.516,514.253z M-484.195,516.479c-0.615,0-1.113-0.498-1.113-1.113
	c0-0.615,0.498-1.113,1.113-1.113s1.113,0.498,1.113,1.113C-483.082,515.981-483.58,516.479-484.195,516.479z"/>
</svg>
