<?xml version="1.0" encoding="utf-8"?>
<!-- Generator: Adobe Illustrator 17.0.0, SVG Export Plug-In . SVG Version: 6.00 Build 0)  -->
<!DOCTYPE svg PUBLIC "-//W3C//DTD SVG 1.1//EN" "http://www.w3.org/Graphics/SVG/1.1/DTD/svg11.dtd">
<svg version="1.1" id="图层_1" xmlns="http://www.w3.org/2000/svg" xmlns:xlink="http://www.w3.org/1999/xlink" x="0px" y="0px"
	 width="20px" height="20px" viewBox="0 0 20 20" enable-background="new 0 0 20 20" xml:space="preserve">
<path fill="#CCCCCC" d="M8.495,7.638V0C3.687,0.728,0,4.866,0,9.876c0,2.572,0.978,4.908,2.573,6.68
	C8.662,12.304,8.495,7.638,8.495,7.638z M11.54,7.525c0.694,5.272,4.272,7.941,5.918,8.993c0.02-0.022,0.043-0.042,0.062-0.064
	C19.06,14.695,20,12.397,20,9.876c0-2.522-0.939-4.818-2.48-6.577c-1.512-1.728-3.609-2.922-5.98-3.291
	C11.54,0.008,11.54,7.525,11.54,7.525z M9.905,12.658c-0.875,3.125-3.298,5.211-4.507,6.091c1.378,0.716,2.941,1.128,4.602,1.128
	c1.728,0,3.345-0.452,4.761-1.225C11.523,16.316,9.905,12.658,9.905,12.658z"/>
</svg>
