<?xml version="1.0" encoding="utf-8"?>
<!-- Generator: Adobe Illustrator 17.0.0, SVG Export Plug-In . SVG Version: 6.00 Build 0)  -->
<!DOCTYPE svg PUBLIC "-//W3C//DTD SVG 1.1//EN" "http://www.w3.org/Graphics/SVG/1.1/DTD/svg11.dtd">
<svg version="1.1" id="图层_1" xmlns="http://www.w3.org/2000/svg" xmlns:xlink="http://www.w3.org/1999/xlink" x="0px" y="0px"
	 width="130px" height="75px" viewBox="0 0 130 75" enable-background="new 0 0 130 75" xml:space="preserve">
<g>
	<path fill="#1767A3" d="M53.489,24.33h-2.475v1.165c0,0.259-0.052,0.431-0.152,0.518c-0.099,0.086-0.412,0.252-0.937,0.496
		c-0.528,0.245-1.19,0.453-1.987,0.624c-0.228,0-0.342-0.113-0.342-0.344l0.086-2.546c0.027-0.745,0.041-1.697,0.041-2.845v-5.24
		c0-1.208-0.041-2.43-0.127-3.668c1.479,0.49,2.789,0.899,3.929,1.475h2.263V8.85h-5.125c-0.769,0-1.367,0.087-1.793,0.259
		l-1.11-1.983c0.596,0.144,1.309,0.214,2.134,0.214h5.894V4.145c0-1.438-0.027-3.024-0.084-4.145
		c3.415,0.776,5.123,1.453,5.123,2.027c0,0.287-0.542,0.619-1.622,0.992v4.32h3.245l1.153-1.553c0.313-0.43,0.597-0.645,0.853-0.645
		c0.258,0,0.856,0.473,1.795,1.424c0.94,0.948,1.409,1.567,1.409,1.854c0,0.288-0.27,0.431-0.812,0.431h-7.644v5.117h3.221l0.853-1
		c0.228-0.317,0.443-0.474,0.642-0.474c0.199,0,0.846,0.374,1.942,1.12c1.096,0.75,1.644,1.247,1.644,1.49
		c0,0.245-0.456,0.64-1.367,1.186v3.558c0,1.293,0.023,2.35,0.064,3.17c0.042,0.819,0.065,1.308,0.065,1.467
		c0,0.158-0.129,0.315-0.385,0.474c-0.257,0.158-0.763,0.382-1.516,0.668c-0.756,0.288-1.232,0.431-1.432,0.431
		c-0.199,0-0.298-0.23-0.298-0.691V24.33h-3.604v5.368h3.16l1.194-1.553c0.313-0.432,0.592-0.647,0.833-0.647
		c0.243,0,0.862,0.474,1.858,1.423c0.996,0.949,1.494,1.568,1.494,1.854c0,0.288-0.299,0.431-0.896,0.431h-7.644v6.797
		c0,0.287-0.037,0.46-0.108,0.517c-0.071,0.058-0.372,0.209-0.897,0.454c-0.528,0.243-1.055,0.453-1.581,0.625
		c-0.528,0.172-0.848,0.257-0.962,0.257c-0.113,0-0.169-0.128-0.169-0.387l0.084-2.027c0.058-1.38,0.085-2.66,0.085-3.838v-2.399
		H46.7c-0.768,0-1.367,0.088-1.792,0.26l-0.77-1.985c0.599,0.145,1.308,0.217,2.135,0.217h7.216V24.33z M51.014,18.433h9.625v-3.008
		h-9.625V18.433z M60.64,19.769h-9.625v3.094h9.625V19.769z M73.185,3.929h4.656l0.939-1.38c0.284-0.432,0.562-0.647,0.832-0.647
		c0.27,0,1.018,0.438,2.241,1.315c1.224,0.879,1.837,1.446,1.837,1.704c0,0.258-0.556,0.677-1.665,1.251v28.856
		c0,1.063-0.128,1.861-0.384,2.393c-0.257,0.533-0.849,1.1-1.773,1.704C78.943,39.73,78.331,40,78.033,40
		c-0.3,0-0.52-0.185-0.664-0.617c-0.312-0.977-0.818-1.717-1.516-2.22c-0.698-0.504-2.056-1.129-4.078-1.876l0.17-0.993
		c2.308,0.488,3.802,0.734,4.485,0.734c0.683,0,1.16-0.072,1.431-0.216c0.27-0.144,0.406-0.473,0.406-0.991V24.48h-6.15
		c-0.673,3.943-1.252,5.739-2.988,8.197c-1.739,2.458-4.599,4.728-8.585,7.172l-0.47-0.636c3.047-2.791,5.096-5.083,6.151-6.881
		c1.052-1.796,1.756-3.969,2.113-6.512c0.355-2.545,0.576-5.521,0.663-8.928c0.085-3.409,0.112-8.404,0.085-14.99
		C70.65,2.536,72.017,3.21,73.185,3.929z M78.267,15.235h-5.766l-0.298,7.69h6.064V15.235z M72.545,13.724h5.722V5.439h-5.551
		C72.658,8.66,72.602,12.114,72.545,13.724z M53.489,24.33h-2.475v1.165c0,0.259-0.052,0.431-0.152,0.518
		c-0.099,0.086-0.412,0.252-0.937,0.496c-0.528,0.245-1.19,0.453-1.987,0.624c-0.228,0-0.342-0.113-0.342-0.344l0.086-2.546
		c0.027-0.745,0.041-1.697,0.041-2.845v-5.24c0-1.208-0.041-2.43-0.127-3.668c1.479,0.49,2.789,0.899,3.929,1.475h2.263V8.85h-5.125
		c-0.769,0-1.367,0.087-1.793,0.259l-1.11-1.983c0.596,0.144,1.309,0.214,2.134,0.214h5.894V4.145c0-1.438-0.027-3.024-0.084-4.145
		c3.415,0.776,5.123,1.453,5.123,2.027c0,0.287-0.542,0.619-1.622,0.992v4.32h3.245l1.153-1.553c0.313-0.43,0.597-0.645,0.853-0.645
		c0.258,0,0.856,0.473,1.795,1.424c0.94,0.948,1.409,1.567,1.409,1.854c0,0.288-0.27,0.431-0.812,0.431h-7.644v5.117h3.221l0.853-1
		c0.228-0.317,0.443-0.474,0.642-0.474c0.199,0,0.846,0.374,1.942,1.12c1.096,0.75,1.644,1.247,1.644,1.49
		c0,0.245-0.456,0.64-1.367,1.186v3.558c0,1.293,0.023,2.35,0.064,3.17c0.042,0.819,0.065,1.308,0.065,1.467
		c0,0.158-0.129,0.315-0.385,0.474c-0.257,0.158-0.763,0.382-1.516,0.668c-0.756,0.288-1.232,0.431-1.432,0.431
		c-0.199,0-0.298-0.23-0.298-0.691V24.33h-3.604v5.368h3.16l1.194-1.553c0.313-0.432,0.592-0.647,0.833-0.647
		c0.243,0,0.862,0.474,1.858,1.423c0.996,0.949,1.494,1.568,1.494,1.854c0,0.288-0.299,0.431-0.896,0.431h-7.644v6.797
		c0,0.287-0.037,0.46-0.108,0.517c-0.071,0.058-0.372,0.209-0.897,0.454c-0.528,0.243-1.055,0.453-1.581,0.625
		c-0.528,0.172-0.848,0.257-0.962,0.257c-0.113,0-0.169-0.128-0.169-0.387l0.084-2.027c0.058-1.38,0.085-2.66,0.085-3.838v-2.399
		H46.7c-0.768,0-1.367,0.088-1.792,0.26l-0.77-1.985c0.599,0.145,1.308,0.217,2.135,0.217h7.216V24.33z M51.014,18.433h9.625v-3.008
		h-9.625V18.433z M60.64,19.769h-9.625v3.094h9.625V19.769z M73.185,3.929h4.656l0.939-1.38c0.284-0.432,0.562-0.647,0.832-0.647
		c0.27,0,1.018,0.438,2.241,1.315c1.224,0.879,1.837,1.446,1.837,1.704c0,0.258-0.556,0.677-1.665,1.251v28.856
		c0,1.063-0.128,1.861-0.384,2.393c-0.257,0.533-0.849,1.1-1.773,1.704C78.943,39.73,78.331,40,78.033,40
		c-0.3,0-0.52-0.185-0.664-0.617c-0.312-0.977-0.818-1.717-1.516-2.22c-0.698-0.504-2.056-1.129-4.078-1.876l0.17-0.993
		c2.308,0.488,3.802,0.734,4.485,0.734c0.683,0,1.16-0.072,1.431-0.216c0.27-0.144,0.406-0.473,0.406-0.991V24.48h-6.15
		c-0.673,3.943-1.252,5.739-2.988,8.197c-1.739,2.458-4.599,4.728-8.585,7.172l-0.47-0.636c3.047-2.791,5.096-5.083,6.151-6.881
		c1.052-1.796,1.756-3.969,2.113-6.512c0.355-2.545,0.576-5.521,0.663-8.928c0.085-3.409,0.112-8.404,0.085-14.99
		C70.65,2.536,72.017,3.21,73.185,3.929z M78.267,15.235h-5.766l-0.298,7.69h6.064V15.235z M72.545,13.724h5.722V5.439h-5.551
		C72.658,8.66,72.602,12.114,72.545,13.724z M21.03,12.027v22.762c0,1.593-0.272,2.687-0.812,3.281
		c-0.54,0.593-1.387,0.807-2.542,1.257C16.525,39.774,15.785,40,15.457,40c-0.328,0-0.533-0.188-0.619-0.565
		c-0.284-1.188-0.754-1.734-1.409-2.255c-0.655-0.521-2.035-1.144-4.142-1.868l0.171-0.913c2.505,0.491,4.255,0.738,5.252,0.738
		c0.997,0,1.616-0.152,1.858-0.457c0.241-0.303,0.362-0.802,0.362-1.498V3.989c0-2.489-0.029-3.41-0.086-3.989
		c3.843,1.043,5.765,1.796,5.765,2.259c0,0.232-0.527,0.652-1.579,1.26v2.294c0.824,3.998,1.922,7.473,3.288,10.426
		c3.645-3.764,5.672-8.236,7.295-10.581c0.711,0.55,1.48,1.251,2.306,2.106c0.824,0.854,1.331,1.405,1.516,1.651
		c0.185,0.247,0.277,0.457,0.277,0.63c0,0.32-0.285,0.421-0.855,0.305c-0.227-0.03-0.426-0.044-0.596-0.044
		c-0.569,0-0.341-0.337-1.252,0.33c-1.936,1.449-4.876,5.141-8.092,6.907c3.187,6.458,8.227,11.034,15.117,13.727l-0.173,1.043
		c-0.683-0.086-1.323-0.129-1.92-0.129c-0.598,0-1.139,0.16-1.623,0.478c-0.485,0.32-0.968,0.883-1.453,1.695
		c-0.142,0.231-0.313,0.345-0.512,0.345c-0.655,0-2.598-1.823-5.829-5.472C25.292,25.58,22.794,19.847,21.03,12.027z M2.197,14.115
		c-0.857,0-1.589-0.069-2.197-0.211l0.705,1.73c0.359-0.169,0.883-0.253,1.574-0.253h8.004C9.48,20.555,8.325,24.606,6.82,27.528
		c-1.506,2.926-3.738,5.54-6.695,7.846l0.372,0.802c2.929-1.801,5.094-3.347,6.488-4.639c1.396-1.295,2.558-2.897,3.485-4.81
		c0.925-1.911,1.969-4.794,3.128-8.646c0.416-1.378,0.832-2.136,1.246-2.277c0.607-0.227,0.912-0.48,0.912-0.759
		c0-0.282-0.202-0.584-0.602-0.908s-0.988-0.759-1.763-1.307c-0.773-0.548-1.256-0.823-1.45-0.823c-0.193,0-0.373,0.1-0.539,0.296
		l-1.535,1.814H2.197z M21.03,12.027v22.762c0,1.593-0.272,2.687-0.812,3.281c-0.54,0.593-1.387,0.807-2.542,1.257
		C16.525,39.774,15.785,40,15.457,40c-0.328,0-0.533-0.188-0.619-0.565c-0.284-1.188-0.754-1.734-1.409-2.255
		c-0.655-0.521-2.035-1.144-4.142-1.868l0.171-0.913c2.505,0.491,4.255,0.738,5.252,0.738c0.997,0,1.616-0.152,1.858-0.457
		c0.241-0.303,0.362-0.802,0.362-1.498V3.989c0-2.489-0.029-3.41-0.086-3.989c3.843,1.043,5.765,1.796,5.765,2.259
		c0,0.232-0.527,0.652-1.579,1.26v2.294c0.824,3.998,1.922,7.473,3.288,10.426c3.645-3.764,5.672-8.236,7.295-10.581
		c0.711,0.55,1.48,1.251,2.306,2.106c0.824,0.854,1.331,1.405,1.516,1.651c0.185,0.247,0.277,0.457,0.277,0.63
		c0,0.32-0.285,0.421-0.855,0.305c-0.227-0.03-0.426-0.044-0.596-0.044c-0.569,0-0.341-0.337-1.252,0.33
		c-1.936,1.449-4.876,5.141-8.092,6.907c3.187,6.458,8.227,11.034,15.117,13.727l-0.173,1.043c-0.683-0.086-1.323-0.129-1.92-0.129
		c-0.598,0-1.139,0.16-1.623,0.478c-0.485,0.32-0.968,0.883-1.453,1.695c-0.142,0.231-0.313,0.345-0.512,0.345
		c-0.655,0-2.598-1.823-5.829-5.472C25.292,25.58,22.794,19.847,21.03,12.027z M2.197,14.115c-0.857,0-1.589-0.069-2.197-0.211
		l0.705,1.73c0.359-0.169,0.883-0.253,1.574-0.253h8.004C9.48,20.555,8.325,24.606,6.82,27.528c-1.506,2.926-3.738,5.54-6.695,7.846
		l0.372,0.802c2.929-1.801,5.094-3.347,6.488-4.639c1.396-1.295,2.558-2.897,3.485-4.81c0.925-1.911,1.969-4.794,3.128-8.646
		c0.416-1.378,0.832-2.136,1.246-2.277c0.607-0.227,0.912-0.48,0.912-0.759c0-0.282-0.202-0.584-0.602-0.908
		s-0.988-0.759-1.763-1.307c-0.773-0.548-1.256-0.823-1.45-0.823c-0.193,0-0.373,0.1-0.539,0.296l-1.535,1.814H2.197z
		 M113.254,25.026c-0.595-0.35-0.764-0.455-1.423-0.438c-0.461,0.011-0.846-0.092-1.169-0.264c-0.79,0.921-1.603,1.808-2.47,2.616
		c-4.484,4.18-10.664,9.182-19.204,12.197L89.329,40c6.719-1.724,11.71-5.038,15.637-7.136c3.715-1.981,6.764-4.386,9.168-7.202
		C113.873,25.438,113.62,25.241,113.254,25.026z M113.254,25.026c-0.595-0.35-0.764-0.455-1.423-0.438
		c-0.461,0.011-0.846-0.092-1.169-0.264c-0.79,0.921-1.603,1.808-2.47,2.616c-4.484,4.18-10.664,9.182-19.204,12.197L89.329,40
		c6.719-1.724,11.71-5.038,15.637-7.136c3.715-1.981,6.764-4.386,9.168-7.202C113.873,25.438,113.62,25.241,113.254,25.026z
		 M122.925,8.003c-1.438-1.149-2.301-1.724-2.584-1.724c-0.143,0-0.27,0.087-0.385,0.259l-1.532,1.891h-12.897l2.038-3.647
		c0.37-0.63,0.833-1.725,1.639-2.054c0.519-0.21,1.052-0.481,0.884-0.676c-0.484-0.558-3.312-1.95-5.207-2.053
		c-2.79,10.082-7.728,17.411-14.819,23.816l0.684,0.732c4.356-3.16,7.773-6.291,10.25-9.392l0.597-0.82
		c1.11-1.492,2.271-3.017,3.183-4.51h13.963c-0.661,1.943-1.476,3.777-2.328,5.505c0.981,0.949,1.834,2.015,2.604,3.144
		c0.993-1.738,1.989-3.633,2.99-5.732c0.312-0.63,0.584-1.077,0.812-1.335c0.227-0.26,0.661-0.416,1.302-0.473
		c0.64-0.059,0.96-0.274,0.96-0.647C125.08,9.914,124.362,9.151,122.925,8.003z"/>
	<path fill="#FF4E50" d="M97.522,21.751c0,0,9.08-6.462,13.438-5.466c4.355,0.997,6.529,7.282,8.758,6.116
		c2.227-1.168,4.382-7.228,10.281,1.816c0,0-4.49-2.784-6.266-1.825c-1.776,0.959-4.647,3.945-5.17,3.907
		c-0.524-0.041-3.351-5.981-9.29-5.804C103.336,20.671,97.522,21.751,97.522,21.751z"/>
	<path fill="#80868F" d="M61.916,67.392c0.849-0.628,1.45-1.257,1.801-1.885c0.35-0.628,0.526-1.191,0.526-1.69
		c0-0.277-0.138-0.416-0.416-0.416c-0.444,0-0.841-0.202-1.191-0.61c-0.351-0.405-0.527-0.896-0.527-1.468
		c0-0.572,0.226-1.09,0.679-1.553c0.453-0.461,1.021-0.692,1.704-0.692c0.683,0,1.247,0.245,1.691,0.735
		c0.444,0.489,0.664,1.132,0.664,1.925c0,1.348-0.355,2.596-1.067,3.741c-0.711,1.146-1.76,2.126-3.145,2.939L61.916,67.392z
		 M11.62,52.292H1.904c-0.504,0-0.896,0.065-1.176,0.196L0,51.368c0.392,0.093,0.858,0.14,1.4,0.14h20.132l1.372-1.82
		c0.224-0.298,0.453-0.448,0.686-0.448s0.798,0.392,1.694,1.176s1.344,1.307,1.344,1.568c0,0.206-0.29,0.308-0.868,0.308H14.728
		c-0.803,1.55-1.764,3.09-2.884,4.62h8.736l0.84-1.288c0.149-0.224,0.322-0.336,0.518-0.336c0.196,0,0.69,0.346,1.484,1.036
		c0.793,0.69,1.19,1.102,1.19,1.232c0,0.187-0.439,0.448-1.316,0.784v12.824c0,0.84-0.089,1.414-0.266,1.722
		c-0.178,0.308-0.588,0.658-1.232,1.05s-1.06,0.588-1.246,0.588s-0.308-0.187-0.364-0.56c-0.112-0.598-0.346-1.064-0.7-1.4
		c-0.355-0.336-1.055-0.7-2.1-1.092l0.112-0.56c1.288,0.28,2.104,0.42,2.45,0.42c0.345,0,0.555-0.061,0.63-0.182
		c0.074-0.122,0.112-0.341,0.112-0.658V57.724H17.08v10.024c0,0.877,0.009,1.531,0.028,1.96l0.056,1.064
		c0,0.242-0.35,0.508-1.05,0.798c-0.7,0.29-1.111,0.434-1.232,0.434c-0.122,0-0.182-0.131-0.182-0.392V57.724h-3.22v13.272
		c0,0.205-0.024,0.34-0.07,0.406s-0.201,0.177-0.462,0.336c-0.262,0.159-0.611,0.317-1.05,0.476
		c-0.439,0.159-0.696,0.238-0.77,0.238c-0.075,0-0.112-0.094-0.112-0.28l0.056-1.316c0.037-0.877,0.056-1.698,0.056-2.464V57.724
		H5.992v15.148c0,0.205-0.019,0.336-0.056,0.392C5.898,73.32,5.716,73.432,5.39,73.6s-0.7,0.336-1.12,0.504
		c-0.42,0.168-0.672,0.252-0.756,0.252s-0.126-0.065-0.126-0.196l0.084-1.624c0.038-0.635,0.056-1.391,0.056-2.268V58.032
		c0-1.008-0.019-1.895-0.056-2.66c1.456,0.542,2.455,1.055,2.996,1.54h3.808C10.929,55.326,11.377,53.786,11.62,52.292z
		 M39.2,66.992h-6.608c-0.504,0-0.896,0.065-1.176,0.196l-0.56-1.204c0.392,0.094,0.858,0.14,1.4,0.14H39.2V63.52
		c0-1.437-0.019-2.314-0.056-2.632c0.448,0.093,1.092,0.266,1.932,0.518c0.84,0.252,1.344,0.42,1.512,0.504s0.252,0.173,0.252,0.266
		c0,0.187-0.346,0.411-1.036,0.672v3.276h4.368l1.288-1.764c0.149-0.205,0.271-0.308,0.364-0.308c0.168,0,0.718,0.42,1.652,1.26
		c0.933,0.84,1.4,1.326,1.4,1.456c0,0.149-0.252,0.224-0.756,0.224h-8.316v5.74h6.944l1.372-1.82
		c0.149-0.206,0.28-0.308,0.392-0.308c0.261,0,0.868,0.424,1.82,1.274c0.952,0.849,1.428,1.354,1.428,1.512
		c0,0.158-0.224,0.238-0.672,0.238H29.624c-0.504,0-0.896,0.065-1.176,0.196l-0.56-1.232c0.392,0.093,0.858,0.14,1.4,0.14H39.2
		V66.992z M47.432,60.048c-5.133,0.411-8.628,0.738-10.486,0.98c-1.857,0.243-3.173,0.476-3.948,0.7
		c-0.775,0.224-1.204,0.336-1.288,0.336s-0.159-0.037-0.224-0.112s-0.266-0.424-0.602-1.05c-0.336-0.625-0.523-0.984-0.56-1.078
		c0.784-0.112,1.414-0.271,1.89-0.476c0.476-0.205,0.938-0.5,1.386-0.882c0.448-0.382,1.018-0.9,1.708-1.554s1.265-1.25,1.722-1.792
		c0.457-0.542,0.975-1.278,1.554-2.212h-7.42c-0.504,0-0.896,0.065-1.176,0.196l-0.56-1.204c0.392,0.094,0.858,0.14,1.4,0.14h17.5
		l1.288-1.736c0.149-0.206,0.298-0.308,0.448-0.308c0.242,0,0.83,0.411,1.764,1.232c0.934,0.822,1.4,1.307,1.4,1.456
		s-0.234,0.224-0.7,0.224H39.34c1.512,0.766,2.371,1.213,2.576,1.344c0.205,0.131,0.308,0.262,0.308,0.392
		c0,0.206-0.196,0.308-0.588,0.308c-0.635,0-1.176,0.159-1.624,0.476c-1.998,1.531-3.883,2.894-5.656,4.088l12.32-0.336
		c-1.27-1.4-2.595-2.585-3.976-3.556l0.224-0.448c2.053,0.747,3.621,1.396,4.704,1.946c1.083,0.551,1.834,1.064,2.254,1.54
		s0.63,0.999,0.63,1.568c0,0.57-0.117,1.125-0.35,1.666c-0.233,0.542-0.49,0.812-0.77,0.812c-0.168,0-0.304-0.051-0.406-0.154
		c-0.103-0.103-0.248-0.364-0.434-0.784S47.992,60.776,47.432,60.048z"/>
	<path fill="#A4A8AF" d="M79.016,53.552h12.852l0.42-0.952c0.112-0.28,0.261-0.42,0.448-0.42c0.187,0,0.742,0.229,1.666,0.686
		s1.386,0.816,1.386,1.078c0,0.262-0.355,0.607-1.064,1.036v14.308l0.056,2.52c0,0.242-0.028,0.392-0.084,0.448
		c-0.056,0.056-0.238,0.182-0.546,0.378c-0.308,0.196-0.672,0.378-1.092,0.546c-0.42,0.168-0.682,0.252-0.784,0.252
		c-0.103,0-0.154-0.122-0.154-0.364v-3.192H78.316v2.128c0,0.149-0.028,0.266-0.084,0.35s-0.243,0.214-0.56,0.392
		c-0.318,0.177-0.691,0.35-1.12,0.518c-0.43,0.168-0.709,0.252-0.84,0.252c-0.131,0-0.187-0.103-0.168-0.308
		c0.093-0.915,0.14-1.848,0.14-2.8v-16.38c0-0.784-0.028-1.577-0.084-2.38C77.056,52.357,78.194,52.992,79.016,53.552z
		 M92.12,69.064V54.476H78.316v6.748h9.072l1.036-1.736c0.149-0.224,0.313-0.336,0.49-0.336c0.177,0,0.69,0.388,1.54,1.162
		c0.85,0.775,1.274,1.251,1.274,1.428s-0.224,0.266-0.672,0.266h-12.74v7.056H92.12z M107.296,55.484l-2.24,8.596
		c-0.374,1.438-0.56,2.627-0.56,3.57c0,0.943,0.075,1.928,0.224,2.954s0.224,1.764,0.224,2.212c0,0.448-0.075,0.784-0.224,1.008
		c-0.149,0.224-0.462,0.336-0.938,0.336s-0.919-0.159-1.33-0.476c-0.411-0.318-0.616-0.709-0.616-1.176
		c0-0.13,0.018-0.271,0.056-0.42c0.467-1.568,0.7-2.613,0.7-3.136s-0.075-0.891-0.224-1.106c-0.149-0.214-0.406-0.411-0.77-0.588
		c-0.364-0.177-0.882-0.34-1.554-0.49l0.056-0.644c0.374,0.038,0.761,0.056,1.162,0.056s0.747-0.079,1.036-0.238
		c0.289-0.158,0.499-0.373,0.63-0.644c0.13-0.27,0.364-0.854,0.7-1.75l3.108-8.316L107.296,55.484z M100.408,56.716
		c1.736,0.579,2.87,1.036,3.402,1.372c0.532,0.336,0.798,0.756,0.798,1.26s-0.112,0.947-0.336,1.33
		c-0.224,0.383-0.434,0.574-0.63,0.574c-0.196,0-0.345-0.046-0.448-0.14c-0.103-0.093-0.257-0.345-0.462-0.756
		c-0.43-0.858-1.27-1.904-2.52-3.136L100.408,56.716z M102.032,50.528c2.893,0.934,4.34,1.904,4.34,2.912
		c0,0.28-0.117,0.644-0.35,1.092c-0.234,0.448-0.486,0.672-0.756,0.672s-0.48-0.07-0.63-0.21c-0.149-0.14-0.336-0.448-0.56-0.924
		c-0.224-0.476-0.49-0.942-0.798-1.4c-0.308-0.457-0.817-1.031-1.526-1.722L102.032,50.528z M110.936,56.8v-2.408h-2.128
		c-0.485,0-0.868,0.056-1.148,0.168l-0.616-1.148c0.392,0.094,0.849,0.14,1.372,0.14h2.52v-1.876c0-0.933-0.019-1.764-0.056-2.492
		c1.979,0.411,2.968,0.747,2.968,1.008c0,0.168-0.29,0.392-0.868,0.672v2.688h1.036l0.812-1.008
		c0.206-0.242,0.387-0.364,0.546-0.364c0.158,0,0.522,0.285,1.092,0.854c0.569,0.569,0.854,0.938,0.854,1.106
		s-0.215,0.252-0.644,0.252h-3.696V56.8h0.84l0.532-0.644c0.13-0.168,0.266-0.252,0.406-0.252s0.495,0.201,1.064,0.602
		c0.569,0.402,0.854,0.668,0.854,0.798c0,0.131-0.215,0.317-0.644,0.56v3.416c0,0.878,0.009,1.466,0.028,1.764l0.028,0.896
		c0,0.131-0.061,0.234-0.182,0.308c-0.122,0.075-0.416,0.187-0.882,0.336c-0.467,0.15-0.761,0.224-0.882,0.224
		s-0.182-0.224-0.182-0.672h-1.148v3.08h1.008l0.7-0.812c0.224-0.261,0.41-0.392,0.56-0.392c0.149,0,0.476,0.243,0.98,0.728
		c0.504,0.485,0.756,0.826,0.756,1.022c0,0.196-0.224,0.294-0.672,0.294h-3.332v5.46c0,0.149-0.038,0.252-0.112,0.308
		c-0.075,0.056-0.233,0.149-0.476,0.28c-0.243,0.13-0.532,0.242-0.868,0.336c-0.336,0.093-0.556,0.14-0.658,0.14
		s-0.154-0.084-0.154-0.252l0.056-1.232c0.038-0.896,0.056-1.736,0.056-2.52v-2.52h-2.8c-0.504,0-0.896,0.056-1.176,0.168
		l-0.504-1.148c0.392,0.093,0.858,0.14,1.4,0.14h3.08v-3.08h-0.924c0,0.374-0.028,0.602-0.084,0.686
		c-0.056,0.084-0.341,0.234-0.854,0.448c-0.514,0.215-0.822,0.322-0.924,0.322s-0.154-0.056-0.154-0.168l0.056-1.176
		c0.037-0.56,0.056-1.344,0.056-2.352v-3.584c0-0.784-0.028-1.577-0.084-2.38c0.803,0.243,1.484,0.532,2.044,0.868H110.936z
		 M109.732,59.964h4.228V57.64h-4.228V59.964z M113.96,60.804h-4.228v2.52h4.228V60.804z M119.784,51.872h2.212l0.672-1.036
		c0.186-0.28,0.359-0.42,0.518-0.42c0.158,0,0.597,0.262,1.316,0.784c0.718,0.522,1.078,0.919,1.078,1.19s-0.308,0.509-0.924,0.714
		v19.124c0,1.026-0.392,1.74-1.176,2.142c-0.784,0.401-1.288,0.602-1.512,0.602c-0.149,0-0.28-0.15-0.392-0.448
		c-0.206-0.598-0.5-1.032-0.882-1.302c-0.383-0.271-1.153-0.584-2.31-0.938l0.14-0.644c1.306,0.242,2.216,0.364,2.73,0.364
		c0.513,0,0.863-0.047,1.05-0.14c0.187-0.094,0.28-0.28,0.28-0.56v-7.336h-3.08c-0.112,2.558-0.616,4.657-1.512,6.3
		c-0.896,1.642-2.25,3.22-4.06,4.732l-0.448-0.42c1.829-2.128,2.982-4.153,3.458-6.076c0.476-1.922,0.714-5.87,0.714-11.844
		c0-1.848-0.019-3.798-0.056-5.852C118.477,51.144,119.205,51.499,119.784,51.872z M122.584,58.144h-2.912
		c0,1.494-0.047,3.155-0.14,4.984h3.052V58.144z M119.7,57.304h2.884v-4.592h-2.828C119.756,53.72,119.737,55.251,119.7,57.304z"/>
</g>
</svg>
