<?xml version="1.0" encoding="utf-8"?>
<!-- Generator: Adobe Illustrator 17.0.0, SVG Export Plug-In . SVG Version: 6.00 Build 0)  -->
<!DOCTYPE svg PUBLIC "-//W3C//DTD SVG 1.1//EN" "http://www.w3.org/Graphics/SVG/1.1/DTD/svg11.dtd">
<svg version="1.1" id="图层_1" xmlns="http://www.w3.org/2000/svg" xmlns:xlink="http://www.w3.org/1999/xlink" x="0px" y="0px"
	 width="20px" height="20px" viewBox="0 0 20 20" enable-background="new 0 0 20 20" xml:space="preserve">
<path fill="#80868F" d="M18.468,3.208l-1.853-1.853c-0.512-0.512-1.341-0.512-1.853,0L13.117,3H2.5C1.673,3,1,3.673,1,4.5v13
	C1,18.327,1.673,19,2.5,19h13c0.827,0,1.5-0.673,1.5-1.5V6.528l1.468-1.468C18.98,4.549,18.98,3.72,18.468,3.208z M16,17.5
	c0,0.276-0.224,0.5-0.5,0.5h-13C2.224,18,2,17.776,2,17.5v-13C2,4.224,2.224,4,2.5,4h9.617l-6.333,6.333
	c0.884,0.179,1.728,0.607,2.413,1.293c0.685,0.685,1.114,1.53,1.293,2.413L16,7.528V17.5z M4.902,11.349
	c-0.023,0-0.103,0.005-0.126,0.009c-0.182,0.027-0.331,0.161-0.378,0.339l-0.934,3.557c-0.042,0.159,0.004,0.328,0.121,0.444
	c0.087,0.088,0.205,0.136,0.327,0.136c0.04,0,0.079-0.005,0.118-0.016l3.557-0.934c0.2-0.052,0.341-0.231,0.345-0.438
	c0.002-0.098-0.014-0.985-1.105-2.076C5.904,11.449,5.173,11.349,4.902,11.349z"/>
</svg>
