<?xml version="1.0" encoding="utf-8"?>
<!-- Generator: Adobe Illustrator 17.0.0, SVG Export Plug-In . SVG Version: 6.00 Build 0)  -->
<!DOCTYPE svg PUBLIC "-//W3C//DTD SVG 1.1//EN" "http://www.w3.org/Graphics/SVG/1.1/DTD/svg11.dtd">
<svg version="1.1" id="图层_1" xmlns="http://www.w3.org/2000/svg" xmlns:xlink="http://www.w3.org/1999/xlink" x="0px" y="0px"
	 width="20px" height="20px" viewBox="0 0 20 20" enable-background="new 0 0 20 20" xml:space="preserve">
<path fill="#80868F" d="M15.796,11.553L20,10l-4.204-1.553L18.66,5l-4.418,0.758L15,1.34l-3.447,2.865L10,0L8.447,4.205L5,1.34
	l0.757,4.418L1.34,5l2.865,3.447L0,10l4.205,1.554L1.34,14.999l4.417-0.757L5,18.659l3.447-2.864L10,20l1.553-4.205L15,18.659
	l-0.758-4.417l4.418,0.757L15.796,11.553z M10,14.999c-2.761,0-5-2.238-5-5c0-2.761,2.239-5,5-5c2.761,0,5,2.239,5,5
	C15,12.761,12.761,14.999,10,14.999z"/>
</svg>
