<?xml version="1.0" encoding="utf-8"?>
<!-- Generator: Adobe Illustrator 18.0.0, SVG Export Plug-In . SVG Version: 6.00 Build 0)  -->
<!DOCTYPE svg PUBLIC "-//W3C//DTD SVG 1.1//EN" "http://www.w3.org/Graphics/SVG/1.1/DTD/svg11.dtd">
<svg version="1.1" id="图层_1" xmlns="http://www.w3.org/2000/svg" xmlns:xlink="http://www.w3.org/1999/xlink" x="0px" y="0px"
	 viewBox="0 0 96 96" enable-background="new 0 0 96 96" xml:space="preserve">
<path fill="#80868F" d="M96,48l-13.2-9.3L89.6,24l-16.1-1.5L72,6.4l-14.7,6.8L48,0l-9.3,13.2L24,6.4l-1.5,16.1L6.4,24l6.8,14.7L0,48
	l13.2,9.3L6.4,72l16.1,1.5L24,89.6l14.7-6.8L48,96l9.3-13.2L72,89.6l1.5-16.1L89.6,72l-6.8-14.7L96,48z M48,73.9
	c-14.4,0-26-11.6-26-26c0-14.4,11.6-26,26-26s26,11.6,26,26C74,62.2,62.4,73.9,48,73.9z"/>
</svg>
