<?xml version="1.0" encoding="utf-8"?>
<!-- Generator: Adobe Illustrator 18.0.0, SVG Export Plug-In . SVG Version: 6.00 Build 0)  -->
<!DOCTYPE svg PUBLIC "-//W3C//DTD SVG 1.1//EN" "http://www.w3.org/Graphics/SVG/1.1/DTD/svg11.dtd">
<svg version="1.1" id="图层_1" xmlns="http://www.w3.org/2000/svg" xmlns:xlink="http://www.w3.org/1999/xlink" x="0px" y="0px"
	 viewBox="0 0 32 32" enable-background="new 0 0 32 32" xml:space="preserve">
<g>
	<path fill="#007EF6" d="M17.6,11.2v13.7c0,1-0.2,1.6-0.5,2s-0.8,0.5-1.5,0.8c-0.7,0.3-1.1,0.4-1.3,0.4S14,28,13.9,27.8
		c-0.2-0.7-0.5-1-0.8-1.4c-0.4-0.3-1.2-0.7-2.5-1.1l0.1-0.5c1.5,0.3,2.6,0.4,3.1,0.4c0.6,0,1-0.1,1.1-0.3c0.1-0.2,0.2-0.5,0.2-0.9
		V6.4c0-1.5,0-2-0.1-2.4c2.3,0.6,3.5,1.1,3.5,1.4c0,0.1-0.3,0.4-0.9,0.8v1.4c0.5,2.4,1.2,4.5,2,6.3C21.8,11.6,23,9,24,7.6
		c0.4,0.3,0.9,0.8,1.4,1.3s0.8,0.8,0.9,1c0.1,0.1,0.2,0.3,0.2,0.4c0,0.2-0.2,0.3-0.5,0.2c-0.1,0-0.3,0-0.4,0c-0.3,0-0.2-0.2-0.8,0.2
		c-1.2,0.9-2.9,3.1-4.9,4.1c1.9,3.9,4.9,6.6,9.1,8.2l-0.1,0.6c-0.4-0.1-0.8-0.1-1.2-0.1c-0.4,0-0.7,0.1-1,0.3
		c-0.3,0.2-0.6,0.5-0.9,1c-0.1,0.1-0.2,0.2-0.3,0.2c-0.4,0-1.6-1.1-3.5-3.3C20.2,19.3,18.7,15.9,17.6,11.2z M6.3,12.5
		c-0.5,0-1,0-1.3-0.1l0.4,1c0.2-0.1,0.5-0.2,0.9-0.2h4.8c-0.5,3.1-1.2,5.5-2.1,7.3c-0.9,1.8-2.2,3.3-4,4.7l0.2,0.5
		c1.8-1.1,3.1-2,3.9-2.8c0.8-0.8,1.5-1.7,2.1-2.9c0.6-1.1,1.2-2.9,1.9-5.2c0.2-0.8,0.5-1.3,0.7-1.4c0.4-0.1,0.5-0.3,0.5-0.5
		s-0.1-0.4-0.4-0.5c-0.2-0.2-0.6-0.5-1.1-0.8s-0.8-0.5-0.9-0.5s-0.2,0.1-0.3,0.2l-0.9,1.1L6.3,12.5L6.3,12.5z M17.6,11.2v13.7
		c0,1-0.2,1.6-0.5,2s-0.8,0.5-1.5,0.8c-0.7,0.3-1.1,0.4-1.3,0.4S14,28,13.9,27.8c-0.2-0.7-0.5-1-0.8-1.4c-0.4-0.3-1.2-0.7-2.5-1.1
		l0.1-0.5c1.5,0.3,2.6,0.4,3.1,0.4c0.6,0,1-0.1,1.1-0.3c0.1-0.2,0.2-0.5,0.2-0.9V6.4c0-1.5,0-2-0.1-2.4c2.3,0.6,3.5,1.1,3.5,1.4
		c0,0.1-0.3,0.4-0.9,0.8v1.4c0.5,2.4,1.2,4.5,2,6.3C21.8,11.6,23,9,24,7.6c0.4,0.3,0.9,0.8,1.4,1.3s0.8,0.8,0.9,1
		c0.1,0.1,0.2,0.3,0.2,0.4c0,0.2-0.2,0.3-0.5,0.2c-0.1,0-0.3,0-0.4,0c-0.3,0-0.2-0.2-0.8,0.2c-1.2,0.9-2.9,3.1-4.9,4.1
		c1.9,3.9,4.9,6.6,9.1,8.2l-0.1,0.6c-0.4-0.1-0.8-0.1-1.2-0.1c-0.4,0-0.7,0.1-1,0.3c-0.3,0.2-0.6,0.5-0.9,1
		c-0.1,0.1-0.2,0.2-0.3,0.2c-0.4,0-1.6-1.1-3.5-3.3C20.2,19.3,18.7,15.9,17.6,11.2z M6.3,12.5c-0.5,0-1,0-1.3-0.1l0.4,1
		c0.2-0.1,0.5-0.2,0.9-0.2h4.8c-0.5,3.1-1.2,5.5-2.1,7.3c-0.9,1.8-2.2,3.3-4,4.7l0.2,0.5c1.8-1.1,3.1-2,3.9-2.8
		c0.8-0.8,1.5-1.7,2.1-2.9c0.6-1.1,1.2-2.9,1.9-5.2c0.2-0.8,0.5-1.3,0.7-1.4c0.4-0.1,0.5-0.3,0.5-0.5s-0.1-0.4-0.4-0.5
		c-0.2-0.2-0.6-0.5-1.1-0.8s-0.8-0.5-0.9-0.5s-0.2,0.1-0.3,0.2l-0.9,1.1L6.3,12.5L6.3,12.5z"/>
</g>
</svg>
